<svg width="23" height="28" viewBox="0 0 23 28" fill="none" xmlns="http://www.w3.org/2000/svg">
<path fill-rule="evenodd" clip-rule="evenodd" d="M11.9037 0.00517287C11.6426 0.00112917 11.3572 0.0011783 11.0383 0.0012332L10.9247 0.00124613H8.75586L8.71545 0.00124602C7.37817 0.00123898 6.3184 0.00123338 5.46419 0.0710251C4.59067 0.142394 3.85156 0.291298 3.17667 0.635172C2.08228 1.19279 1.19252 2.08255 0.634903 3.17694C0.291029 3.85183 0.142125 4.59094 0.0707559 5.46445C0.000964346 6.31866 0.000969806 7.37843 0.000976699 8.71571V8.71572V8.75612V19.244V19.2844C0.000969807 20.6217 0.000964204 21.6815 0.0707559 22.5357C0.142125 23.4092 0.291029 24.1483 0.634903 24.8232C1.19252 25.9176 2.08228 26.8073 3.17667 27.3649C3.85156 27.7088 4.59067 27.8577 5.46419 27.9291C6.3184 27.9989 7.37819 27.9989 8.71549 27.9989H8.75585H14.2444H14.2847C15.6221 27.9989 16.6818 27.9989 17.5361 27.9291C18.4096 27.8577 19.1487 27.7088 19.8236 27.3649C20.918 26.8073 21.8077 25.9176 22.3653 24.8232C22.7092 24.1483 22.8581 23.4092 22.9295 22.5357C22.9993 21.6814 22.9993 20.6217 22.9993 19.2844V19.244V12.3452L22.9993 12.2422C22.9994 11.7531 22.9994 11.3505 22.9831 10.994H16.7403H16.703C16.049 10.994 15.5031 10.994 15.0571 10.9576C14.5919 10.9196 14.1552 10.8374 13.7422 10.627C13.1087 10.3042 12.5935 9.78903 12.2707 9.15544C12.0603 8.74247 11.9781 8.30576 11.9401 7.84061C11.9037 7.39463 11.9037 6.84871 11.9037 6.19467V6.19466V6.19465L11.9037 6.15739V0.00517287ZM22.6101 9.15731H16.7403C16.0394 9.15731 15.5689 9.15659 15.2066 9.12699C14.8551 9.09827 14.687 9.04698 14.5761 8.99048C14.2881 8.84374 14.0539 8.6096 13.9072 8.3216C13.8507 8.21071 13.7994 8.04262 13.7707 7.69105C13.7411 7.32875 13.7404 6.8583 13.7404 6.15739V0.227931C14.2359 0.370493 14.7107 0.578443 15.1521 0.846586C15.7375 1.20217 16.2323 1.69175 17.0002 2.45143L17.081 2.53134L18.7589 4.19078C18.7756 4.20732 18.7917 4.2245 18.8071 4.24227L20.8603 6.61133L20.9278 6.68917C21.572 7.43226 21.9873 7.91125 22.2876 8.46122C22.4105 8.68618 22.5182 8.91873 22.6101 9.15731ZM7.53154 14.3892C7.02436 14.3892 6.6132 14.8004 6.6132 15.3076C6.6132 15.8148 7.02436 16.2259 7.53154 16.2259H15.4671C15.9743 16.2259 16.3855 15.8148 16.3855 15.3076C16.3855 14.8004 15.9743 14.3892 15.4671 14.3892H7.53154ZM7.53154 19.6215C7.02436 19.6215 6.6132 20.0326 6.6132 20.5398C6.6132 21.047 7.02436 21.4582 7.53154 21.4582H12.8219C13.3291 21.4582 13.7403 21.047 13.7403 20.5398C13.7403 20.0326 13.3291 19.6215 12.8219 19.6215H7.53154Z" fill="url(#paint0_linear_448_2759)"/>
<defs>
<linearGradient id="paint0_linear_448_2759" x1="0.00097622" y1="27.9989" x2="29.2015" y2="10.1451" gradientUnits="userSpaceOnUse">
<stop stop-color="#955EB2"/>
<stop offset="1" stop-color="#DFBAEF"/>
</linearGradient>
</defs>
</svg>
