<svg width="21" height="18" viewBox="0 0 21 18" fill="none" xmlns="http://www.w3.org/2000/svg">
<path d="M0 18C3.46463 18 9.33304 18 14 18C12.2367 15.6983 9.59724 14.3161 6.99999 14.3161C4.40275 14.3161 1.76331 15.6983 0 18Z" fill="#959595"/>
<path d="M6.99999 5C4.80842 5 3.0318 6.77267 3.0318 8.95936C3.0318 11.1461 4.80842 12.9187 6.99999 12.9187C9.19155 12.9187 10.9682 11.1461 10.9682 8.95936C10.9682 6.77267 9.19155 5 6.99999 5Z" fill="#959595"/>
<path d="M17.4 0.9C17.4 0.402944 16.9971 0 16.5 0C16.0029 0 15.6 0.402944 15.6 0.9V3.6H12.9C12.4029 3.6 12 4.00294 12 4.5C12 4.99706 12.4029 5.4 12.9 5.4H15.6V8.1C15.6 8.59706 16.0029 9 16.5 9C16.9971 9 17.4 8.59706 17.4 8.1V5.4H20.1C20.5971 5.4 21 4.99706 21 4.5C21 4.00294 20.5971 3.6 20.1 3.6H17.4V0.9Z" fill="#959595"/>
</svg>
