<svg width="284" height="665" viewBox="0 0 284 665" fill="none" xmlns="http://www.w3.org/2000/svg">
<g id="body">
<g id="body_2" clip-path="url(#clip0_1152_10717)">
<g id="Vector" filter="url(#filter0_ii_1152_10717)">
<path d="M279.559 313.885C273.621 307.166 259.785 295.101 257.404 289.195C255.023 283.288 251.27 278.138 247.321 251.46C243.372 224.783 242.391 218.457 231.104 194.551C226.762 178.539 221.021 133.106 219.648 125.8C218.276 118.494 217.267 100.299 179.316 93.7763C152.427 91.201 165.675 54.0543 167.244 51.6749C168.812 49.2955 172.986 45.5445 173.966 43.389C174.946 41.2056 176.739 32.5278 168.812 33.8994C168.812 33.8994 170.129 0 141.672 0C113.215 0 114.531 33.8994 114.531 33.8994C106.633 32.5278 108.398 41.2056 109.378 43.389C110.358 45.5725 114.531 49.3235 116.1 51.6749C117.668 54.0543 130.917 91.201 104.028 93.7763C66.0764 100.299 65.0681 118.466 63.6957 125.8C62.3232 133.106 56.5815 178.567 52.2401 194.551C40.9806 218.457 39.9723 224.783 36.0231 251.46C32.0738 278.138 28.3207 283.26 25.9399 289.195C23.5592 295.129 9.72289 307.166 3.78504 313.885C-2.1528 320.603 0.62006 321.583 2.21656 321.191C3.58898 321.387 13.8682 311.057 14.4844 316.18C15.1006 321.303 8.74259 330.876 5.96972 335.215C3.19686 339.554 2.27257 341.318 4.31721 342.298C6.30583 343.109 17.5093 325.642 18.4896 327.405C19.4699 329.197 14.8765 340.534 13.4761 344.901C12.1036 349.24 13.4761 352.123 14.4844 351.339C17.5933 351.899 20.3382 335.607 23.9513 331.324C25.8559 329.057 26.8642 329.561 26.304 332.444C25.9399 334.404 24.2314 344.817 24.1474 350.08C24.1474 352.067 25.2677 352.067 26.3321 351.451C28.3767 348.316 30.0852 328.749 32.2699 329.589C34.1745 329.589 35.2108 340.814 36.1911 343.193C37.1714 345.573 38.992 345.461 38.992 342.885C38.992 340.31 38.0117 331.996 38.5999 327.013C39.4121 321.219 40.3924 313.633 40.9806 309.49C41.5688 305.347 41.7649 295.857 42.5491 293.086C43.3333 290.315 59.1583 247.234 60.3346 243.678C61.511 240.123 67.4488 230.634 69.0453 224.111C70.6418 217.589 79.3245 167.398 87.6431 174.9C96.3538 192.087 94.9534 224.111 93.9731 228.842C92.9928 233.573 79.7447 269.74 76.1876 293.058C72.6304 316.376 73.8068 339.694 76.1876 353.719C78.5683 367.743 86.8589 436.522 87.0549 440.077C87.251 443.632 87.4471 496.399 87.8392 505.692C88.2313 514.986 94.5613 548.773 98.5105 562.798C102.46 576.822 102.46 601.54 102.46 606.075C102.46 610.61 92.7687 646.385 95.9337 654.671C107.809 667.911 117.893 665.14 119.265 663.572C120.637 662.005 121.254 651.927 121.45 649.156C121.646 646.385 121.842 631.968 121.842 626.818C121.842 621.667 122.234 601.512 120.861 595.018C119.489 588.495 119.489 572.679 120.665 568.34C121.842 564.001 124.391 519.717 124.419 504.321C124.615 492.871 122.626 469.945 124.222 462.835C124.951 459 126.211 449.594 126.603 446.235C126.995 442.876 135.37 355.146 135.622 327.993C136.406 315.144 141.672 315.872 141.672 315.872C141.672 315.872 146.938 315.144 147.722 327.993C147.974 355.118 156.348 442.876 156.741 446.235C157.133 449.594 158.393 459 159.121 462.835C160.69 469.945 158.729 492.871 158.925 504.321C158.925 519.717 161.502 564.001 162.678 568.34C163.855 572.679 163.855 588.495 162.482 595.018C161.11 601.54 161.502 621.695 161.502 626.818C161.502 631.94 161.698 646.385 161.894 649.156C162.09 651.927 162.678 662.005 164.079 663.572C165.451 665.14 175.534 667.911 187.41 654.671C190.575 646.385 180.884 610.61 180.884 606.075C180.884 601.54 180.884 576.822 184.833 562.798C188.783 548.773 195.113 514.986 195.505 505.692C195.897 496.399 196.093 443.66 196.289 440.077C196.485 436.522 204.804 367.743 207.156 353.719C209.537 339.694 210.713 316.376 207.156 293.058C203.599 269.74 190.351 233.573 189.371 228.842C188.39 224.111 186.99 192.087 195.701 174.9C203.991 167.398 212.702 217.589 214.299 224.111C215.867 230.634 221.805 240.123 223.009 243.678C224.186 247.234 240.01 290.315 240.795 293.086C241.579 295.857 241.775 305.347 242.363 309.49C242.951 313.633 243.904 321.219 244.744 327.013C245.332 331.996 244.352 340.31 244.352 342.885C244.352 345.461 246.172 345.545 247.153 343.193C248.133 340.814 249.169 329.589 251.074 329.589C253.259 328.749 254.967 348.316 257.012 351.451C258.076 352.039 259.224 352.039 259.196 350.08C259.14 344.817 257.432 334.376 257.04 332.444C256.48 329.561 257.488 329.057 259.393 331.324C262.978 335.579 265.75 351.899 268.859 351.339C269.84 352.123 271.24 349.268 269.868 344.901C268.495 340.562 263.874 329.197 264.854 327.405C265.835 325.614 277.038 343.109 279.027 342.298C281.071 341.318 280.147 339.554 277.374 335.215C274.601 330.876 268.271 321.331 268.859 316.18C269.448 311.029 279.727 321.387 281.127 321.191C282.696 321.583 285.469 320.603 279.559 313.885Z" fill="url(#paint0_linear_1152_10717)"/>
</g>
</g>
<circle id="pt_left-shoulder" class="pt_left-shoulder" cx="83" cy="102" r="5" fill="#570680"/>
<circle id="pt_right-shoulder" class="pt_right-shoulder" cx="200" cy="102" r="5" fill="#570680"/>
<circle id="pt_left-elbow" class="pt_left-elbow" cx="60" cy="207" r="5" fill="#570680"/>
<circle id="pt_right-elbow" class="pt_right-elbow" cx="223" cy="207" r="5" fill="#570680"/>
<circle id="pt_left-wrist" class="pt_left-wrist" cx="33" cy="295" r="5" fill="#570680"/>
<circle id="pt_right-wrist" class="pt_right-wrist" cx="251" cy="295" r="5" fill="#570680"/>
<circle id="pt_left-hip" class="pt_left-hip" cx="83" cy="322" r="5" fill="#570680"/>
<circle id="pt_right-hip" class="pt_right-hip" cx="200" cy="322" r="5" fill="#570680"/>
<circle id="pt_left-knee" class="pt_left-knee" cx="106" cy="480" r="5" fill="#570680"/>
<circle id="pt_right-knee" class="pt_right-knee" cx="177" cy="480" r="5" fill="#570680"/>
<circle id="pt_left-ankle" class="pt_left-ankle" cx="111" cy="629" r="5" fill="#570680"/>
<circle id="pt_right-ankle" class="pt_right-ankle" cx="173" cy="629" r="5" fill="#570680"/>
</g>
<defs>
<filter id="filter0_ii_1152_10717" x="0.157959" y="-5" width="286.007" height="673.936" filterUnits="userSpaceOnUse" color-interpolation-filters="sRGB">
<feFlood flood-opacity="0" result="BackgroundImageFix"/>
<feBlend mode="normal" in="SourceGraphic" in2="BackgroundImageFix" result="shape"/>
<feColorMatrix in="SourceAlpha" type="matrix" values="0 0 0 0 0 0 0 0 0 0 0 0 0 0 0 0 0 0 127 0" result="hardAlpha"/>
<feOffset dx="2" dy="-7"/>
<feGaussianBlur stdDeviation="2.5"/>
<feComposite in2="hardAlpha" operator="arithmetic" k2="-1" k3="1"/>
<feColorMatrix type="matrix" values="0 0 0 0 0 0 0 0 0 0 0 0 0 0 0 0 0 0 0.1 0"/>
<feBlend mode="normal" in2="shape" result="effect1_innerShadow_1152_10717"/>
<feColorMatrix in="SourceAlpha" type="matrix" values="0 0 0 0 0 0 0 0 0 0 0 0 0 0 0 0 0 0 127 0" result="hardAlpha"/>
<feOffset dx="3" dy="4"/>
<feGaussianBlur stdDeviation="3.5"/>
<feComposite in2="hardAlpha" operator="arithmetic" k2="-1" k3="1"/>
<feColorMatrix type="matrix" values="0 0 0 0 0.975852 0 0 0 0 0.929167 0 0 0 0 1 0 0 0 0.4 0"/>
<feBlend mode="normal" in2="effect1_innerShadow_1152_10717" result="effect2_innerShadow_1152_10717"/>
</filter>
<linearGradient id="paint0_linear_1152_10717" x1="0.157955" y1="664.936" x2="448.79" y2="522.81" gradientUnits="userSpaceOnUse">
<stop stop-color="#955EB2"/>
<stop offset="1" stop-color="#DFBAEF"/>
</linearGradient>
<clipPath id="clip0_1152_10717">
<rect width="283" height="665" fill="white" transform="translate(0.199707)"/>
</clipPath>
</defs>
</svg>
