<svg width="24" height="24" viewBox="0 0 24 24" fill="none" xmlns="http://www.w3.org/2000/svg">
<path d="M16.4313 17.6153C16.7582 17.9422 17.2883 17.9422 17.6153 17.6153C17.9422 17.2883 17.9422 16.7582 17.6153 16.4313L12.8372 11.6532V6.4186C12.8372 5.95623 12.4624 5.5814 12 5.5814C11.5376 5.5814 11.1628 5.95623 11.1628 6.4186V12C11.1628 12.222 11.251 12.435 11.408 12.592L16.4313 17.6153Z" fill="#959595"/>
<path fill-rule="evenodd" clip-rule="evenodd" d="M12 0C5.37258 0 0 5.37258 0 12C0 18.6274 5.37258 24 12 24C18.6274 24 24 18.6274 24 12C24 5.37258 18.6274 0 12 0ZM1.67442 12C1.67442 6.29734 6.29734 1.67442 12 1.67442C17.7027 1.67442 22.3256 6.29734 22.3256 12C22.3256 17.7027 17.7027 22.3256 12 22.3256C6.29734 22.3256 1.67442 17.7027 1.67442 12Z" fill="#959595"/>
</svg>
