<svg width="22" height="16" viewBox="0 0 22 16" fill="none" xmlns="http://www.w3.org/2000/svg">
<path fill-rule="evenodd" clip-rule="evenodd" d="M11 3.09677C8.31572 3.09677 6.13966 5.29202 6.13966 8C6.13966 10.708 8.31572 12.9032 11 12.9032C13.6843 12.9032 15.8604 10.708 15.8604 8C15.8604 5.29202 13.6843 3.09677 11 3.09677ZM7.67451 8C7.67451 6.14717 9.16339 4.64516 11 4.64516C12.8367 4.64516 14.3255 6.14717 14.3255 8C14.3255 9.85283 12.8367 11.3548 11 11.3548C9.16339 11.3548 7.67451 9.85283 7.67451 8Z" fill="#959595"/>
<path fill-rule="evenodd" clip-rule="evenodd" d="M21.9509 7.72816C22.0204 7.91495 22.0136 8.11173 21.9464 8.28376C20.2408 12.7902 15.9909 16 11 16C6.00602 16 1.75406 12.7864 0.0504945 8.27564C-0.019917 8.0892 -0.0142026 7.89237 0.0521626 7.71997C1.69459 3.31181 6.00773 0 11 0C15.9954 0 20.3108 3.31591 21.9509 7.72816ZM11 14.4516C6.78273 14.4516 3.14887 11.8006 1.59253 7.99826C3.09591 4.29035 6.78663 1.54839 11 1.54839C15.2134 1.54839 18.9041 4.2903 20.4075 7.99816C18.8512 11.8005 15.2173 14.4516 11 14.4516Z" fill="#959595"/>
</svg>
