<svg width="23" height="28" viewBox="0 0 23 28" fill="none" xmlns="http://www.w3.org/2000/svg">
<path fill-rule="evenodd" clip-rule="evenodd" d="M11.9034 0.00492871C11.6424 0.000885025 11.357 0.000934157 11.0381 0.000989059L10.9244 0.00100199H8.75561L8.71521 0.00100187C7.37792 0.000994841 6.31815 0.000989238 5.46394 0.0707809C4.59043 0.14215 3.85131 0.291054 3.17642 0.634928C2.08204 1.19254 1.19228 2.08231 0.634659 3.17669C0.290785 3.85158 0.141881 4.5907 0.0705118 5.46421C0.000720403 6.31842 0.000725778 7.37818 0.000732555 8.71546V8.71547V8.75588V19.2437V19.2842C0.000725778 20.6214 0.000720175 21.6812 0.0705118 22.5354C0.141881 23.4089 0.290785 24.148 0.634659 24.8229C1.19228 25.9173 2.08204 26.8071 3.17642 27.3647C3.85131 27.7086 4.59043 27.8575 5.46394 27.9288C6.31816 27.9986 7.37794 27.9986 8.71525 27.9986H8.75561H14.2441H14.2845C15.6218 27.9986 16.6816 27.9986 17.5358 27.9288C18.4093 27.8575 19.1484 27.7086 19.8233 27.3647C20.9177 26.8071 21.8075 25.9173 22.3651 24.8229C22.709 24.148 22.8579 23.4089 22.9292 22.5354C22.999 21.6812 22.999 20.6214 22.999 19.2841V19.2437V12.345L22.999 12.242C22.9991 11.7529 22.9992 11.3503 22.9828 10.9938H16.7401H16.7028C16.0487 10.9938 15.5028 10.9938 15.0568 10.9573C14.5917 10.9193 14.155 10.8372 13.742 10.6267C13.1084 10.3039 12.5933 9.78878 12.2705 9.15519C12.06 8.74223 11.9779 8.30552 11.9399 7.84037C11.9034 7.39438 11.9034 6.84846 11.9034 6.19441L11.9034 6.15714V0.00492871ZM22.6099 9.15706H16.7401C16.0391 9.15706 15.5687 9.15635 15.2064 9.12675C14.8548 9.09802 14.6867 9.04674 14.5758 8.99024C14.2878 8.8435 14.0537 8.60935 13.907 8.32135C13.8505 8.21047 13.7992 8.04237 13.7704 7.6908C13.7408 7.32851 13.7401 6.85806 13.7401 6.15714V0.227687C14.2357 0.370249 14.7105 0.578198 15.1519 0.846342C15.7372 1.20192 16.2321 1.69151 17 2.45118L17.0807 2.53109L18.7586 4.19054C18.7754 4.20708 18.7915 4.22425 18.8069 4.24203L20.8601 6.61109L20.9275 6.68893C21.5718 7.43201 21.987 7.911 22.2874 8.46097C22.4102 8.68594 22.5179 8.91849 22.6099 9.15706ZM7.5313 14.389C7.02411 14.389 6.61296 14.8001 6.61296 15.3073C6.61296 15.8145 7.02411 16.2257 7.5313 16.2257H15.4669C15.9741 16.2257 16.3852 15.8145 16.3852 15.3073C16.3852 14.8001 15.9741 14.389 15.4669 14.389H7.5313ZM7.5313 19.6213C7.02411 19.6213 6.61296 20.0324 6.61296 20.5396C6.61296 21.0468 7.02411 21.4579 7.5313 21.4579H12.8217C13.3289 21.4579 13.74 21.0468 13.74 20.5396C13.74 20.0324 13.3289 19.6213 12.8217 19.6213H7.5313Z" fill="url(#paint0_linear_681_5835)"/>
<defs>
<linearGradient id="paint0_linear_681_5835" x1="0.000732079" y1="27.9986" x2="29.2012" y2="10.1449" gradientUnits="userSpaceOnUse">
<stop stop-color="#955EB2"/>
<stop offset="1" stop-color="#DFBAEF"/>
</linearGradient>
</defs>
</svg>
