<svg width="20" height="26" viewBox="0 0 20 26" fill="none" xmlns="http://www.w3.org/2000/svg">
<path d="M3.27313 0.00306456C3.97039 -0.0330839 4.63048 0.25493 5.28198 0.636118C5.93398 1.0176 6.72605 1.5859 7.70943 2.29144L16.7431 8.77274C17.5176 9.32834 18.1513 9.78303 18.6227 10.1912C19.104 10.6079 19.5165 11.0584 19.7448 11.6422C20.0851 12.5126 20.0851 13.4874 19.7448 14.3578C19.5165 14.9416 19.104 15.3921 18.6227 15.8088C18.1513 16.217 17.5176 16.6717 16.7431 17.2273L7.70944 23.7085C6.72609 24.4141 5.93397 24.9824 5.28198 25.3639C4.63048 25.7451 3.97039 26.0331 3.27313 25.9969C2.26049 25.9444 1.32146 25.429 0.706307 24.5879C0.282744 24.0087 0.136211 23.2779 0.0681214 22.5017C-2.12491e-05 21.725 -1.16292e-05 20.722 3.15034e-07 19.4767V6.52342C-1.16292e-05 5.27817 -2.12491e-05 4.27503 0.0681214 3.49827C0.136211 2.72207 0.282744 1.99126 0.706307 1.41213C1.32146 0.571046 2.26049 0.0555634 3.27313 0.00306456Z" fill="#7C7C7C"/>
</svg>
