<svg width="27" height="27" viewBox="0 0 27 27" fill="none" xmlns="http://www.w3.org/2000/svg">
<path fill-rule="evenodd" clip-rule="evenodd" d="M11.1304 0.00306427L11.0095 0.00287497C10.5126 0.00170827 10.0143 0.000538468 9.56683 0.176511C9.17737 0.329675 8.83258 0.57816 8.56409 0.899183C8.25562 1.26801 8.09913 1.74106 7.94305 2.21287L7.90498 2.32763L7.47961 3.60341H3.40029H1C0.447715 3.60341 0 4.05112 0 4.60341C0 5.15569 0.447715 5.60341 1 5.60341H2.45738L3.15919 17.5339L3.16168 17.5762C3.23752 18.8656 3.29793 19.8926 3.41312 20.7205C3.53125 21.5695 3.71627 22.2906 4.08544 22.9469C4.68301 24.0093 5.59 24.8645 6.68566 25.3986C7.36252 25.7286 8.09321 25.871 8.94765 25.939C9.78089 26.0054 10.8097 26.0054 12.1013 26.0054H12.1014H12.1437H13.8592H13.9014H13.9015C15.1932 26.0054 16.222 26.0054 17.0552 25.939C17.9097 25.871 18.6403 25.7286 19.3172 25.3986C20.4129 24.8645 21.3199 24.0093 21.9174 22.9469C22.2866 22.2906 22.4716 21.5695 22.5897 20.7205C22.7049 19.8926 22.7653 18.8656 22.8412 17.5763L22.8412 17.5762L22.8412 17.5761L22.8437 17.5339L23.5455 5.60341H25.0029C25.5552 5.60341 26.0029 5.15569 26.0029 4.60341C26.0029 4.05112 25.5552 3.60341 25.0029 3.60341H22.6026H18.5227L18.0974 2.32763L18.0593 2.21286C17.9032 1.74106 17.7467 1.26801 17.4383 0.899183C17.1698 0.57816 16.825 0.329675 16.4355 0.176511C15.9881 0.000538468 15.4898 0.00170827 14.9928 0.00287497L14.8719 0.00306427H11.1304ZM16.4145 3.60341L16.2001 2.96024C15.9763 2.28925 15.9354 2.21977 15.9041 2.18229C15.8504 2.11808 15.7814 2.06839 15.7035 2.03775C15.6581 2.01987 15.5792 2.00306 14.8719 2.00306H11.1304C10.4231 2.00306 10.3443 2.01987 10.2988 2.03775C10.2209 2.06839 10.152 2.11808 10.0983 2.18229C10.0669 2.21977 10.026 2.28925 9.8023 2.96024L9.58785 3.60341H16.4145ZM5.15574 17.4165L4.46084 5.60341H21.542L20.8471 17.4165C20.7682 18.7577 20.7118 19.7051 20.6088 20.4449C20.5076 21.1726 20.3708 21.617 20.1743 21.9664C19.7759 22.6747 19.1712 23.2448 18.4408 23.6009C18.0805 23.7766 17.6288 23.887 16.8964 23.9454C16.1519 24.0047 15.2027 24.0054 13.8592 24.0054H12.1437C10.8001 24.0054 9.85099 24.0047 9.10648 23.9454C8.37409 23.887 7.92242 23.7766 7.56209 23.6009C6.83165 23.2448 6.22699 22.6747 5.82861 21.9664C5.63209 21.617 5.49529 21.1726 5.39404 20.4449C5.29111 19.7051 5.23464 18.7577 5.15574 17.4165ZM11.6019 10.6041C11.6019 10.0519 11.1542 9.60414 10.6019 9.60414C10.0497 9.60414 9.60194 10.0519 9.60194 10.6041V19.005C9.60194 19.5572 10.0497 20.005 10.6019 20.005C11.1542 20.005 11.6019 19.5572 11.6019 19.005V10.6041ZM15.4022 9.60414C15.9545 9.60414 16.4022 10.0519 16.4022 10.6041V19.005C16.4022 19.5572 15.9545 20.005 15.4022 20.005C14.8499 20.005 14.4022 19.5572 14.4022 19.005V10.6041C14.4022 10.0519 14.8499 9.60414 15.4022 9.60414Z" fill="#333333"/>
</svg>
