<svg width="23" height="28" viewBox="0 0 23 28" fill="none" xmlns="http://www.w3.org/2000/svg">
<path fill-rule="evenodd" clip-rule="evenodd" d="M10.6503 1.34868e-05C11.8058 -0.000187173 12.5505 -0.000316497 13.2626 0.170948C13.8927 0.322486 14.495 0.572429 15.0475 0.911602C15.6719 1.29493 16.1984 1.82253 17.0153 2.6412L18.5644 4.19308C18.5821 4.21076 18.599 4.22911 18.6153 4.24809L20.5829 6.54771C21.257 7.33533 21.6915 7.84308 22.0057 8.42471C22.2839 8.9396 22.4877 9.49145 22.611 10.0637C22.7503 10.7102 22.7501 11.379 22.75 12.4164L22.75 18.7314C22.75 20.1537 22.75 21.2809 22.6759 22.1894C22.6001 23.1184 22.442 23.9046 22.0769 24.6224C21.4849 25.7863 20.5403 26.7327 19.3784 27.3258C18.6618 27.6915 17.8771 27.8499 16.9497 27.9258C16.0428 28 14.9177 28 13.4979 28H9.25206C7.83229 28 6.70715 28 5.80025 27.9258C4.87284 27.8499 4.08813 27.6915 3.37161 27.3258C2.20971 26.7327 1.26505 25.7863 0.673034 24.6224C0.307946 23.9046 0.149856 23.1184 0.0740841 22.1894C-1.31819e-05 21.2808 -7.29006e-06 20.1537 1.48593e-07 18.7314V9.26867C-7.29006e-06 7.84634 -1.31819e-05 6.71918 0.0740841 5.81065C0.149856 4.88159 0.307946 4.09547 0.673034 3.37766C1.26505 2.21369 2.20971 1.26734 3.37161 0.674266C4.08813 0.308524 4.87284 0.150151 5.80025 0.0742439C6.70716 1.40294e-05 7.8323 1.99297e-05 9.25209 2.73816e-05L10.6503 1.34868e-05ZM11.7 1.96116C11.396 1.95438 11.0189 1.95351 10.5287 1.95351H9.29499C7.82277 1.95351 6.77724 1.95427 5.95904 2.02124C5.15223 2.08728 4.6527 2.2128 4.25689 2.41483C3.4619 2.82062 2.81556 3.46812 2.4105 4.26453C2.20882 4.66105 2.08353 5.16147 2.01761 5.96973C1.95076 6.78939 1.95 7.83679 1.95 9.31165V18.6884C1.95 20.1632 1.95076 21.2106 2.01761 22.0303C2.08353 22.8386 2.20882 23.339 2.4105 23.7355C2.81556 24.5319 3.4619 25.1794 4.25689 25.5852C4.6527 25.7872 5.15223 25.9127 5.95904 25.9788C6.77724 26.0458 7.82277 26.0465 9.29499 26.0465H13.455C14.9272 26.0465 15.9727 26.0458 16.7909 25.9788C17.5978 25.9127 18.0973 25.7872 18.4931 25.5852C19.2881 25.1794 19.9344 24.5319 20.3395 23.7355C20.5412 23.339 20.6665 22.8386 20.7324 22.0303C20.7992 21.2106 20.8 20.1632 20.8 18.6884V12.5252C20.8 11.8385 20.7983 11.3992 20.7792 11.0698H16.7954C16.101 11.0698 15.5214 11.0698 15.0479 11.0311C14.5541 10.9906 14.0904 10.9032 13.652 10.6794C12.9793 10.3361 12.4324 9.78819 12.0896 9.11431C11.8662 8.67509 11.779 8.2106 11.7386 7.71587C11.7 7.24152 11.7 6.66088 11.7 5.96524V1.96116ZM13.65 2.37062V5.9256C13.65 6.67109 13.6507 7.17146 13.6822 7.55679C13.7127 7.93072 13.7671 8.10951 13.8271 8.22745C13.9829 8.53376 14.2315 8.78279 14.5373 8.93887C14.655 8.99896 14.8334 9.0535 15.2067 9.08406C15.5913 9.11554 16.0908 9.1163 16.835 9.1163H20.1479C19.9456 8.80951 19.6386 8.44585 19.0317 7.73654L17.1591 5.54787L15.7224 4.10866C14.7903 3.17483 14.4321 2.82492 14.0286 2.57722C13.9058 2.50184 13.7795 2.4329 13.65 2.37062Z" fill="#525252"/>
<path fill-rule="evenodd" clip-rule="evenodd" d="M5.55615 15.7499C5.55615 15.1942 6.00667 14.7437 6.5624 14.7437H15.7499C16.3056 14.7437 16.7562 15.1942 16.7562 15.7499C16.7562 16.3056 16.3056 16.7562 15.7499 16.7562H6.5624C6.00667 16.7562 5.55615 16.3056 5.55615 15.7499ZM5.55615 20.5624C5.55615 20.0067 6.00667 19.5562 6.5624 19.5562H15.7499C16.3056 19.5562 16.7562 20.0067 16.7562 20.5624C16.7562 21.1181 16.3056 21.5687 15.7499 21.5687H6.5624C6.00667 21.5687 5.55615 21.1181 5.55615 20.5624Z" fill="#525252"/>
</svg>
