<svg width="80" height="80" viewBox="0 0 80 80" fill="none" xmlns="http://www.w3.org/2000/svg">
<path fill-rule="evenodd" clip-rule="evenodd" d="M36.5598 6.74177C37.977 3.90645 42.023 3.90645 43.4402 6.74177L74.968 69.8173C76.2462 72.3746 74.3866 75.383 71.5278 75.383H8.47225C5.61337 75.383 3.75381 72.3746 5.03201 69.8173L36.5598 6.74177ZM47.5685 4.67828C44.4507 -1.55943 35.5493 -1.55943 32.4315 4.67828L0.903719 67.7539C-1.90833 73.3798 2.18271 79.9983 8.47225 79.9983H71.5278C77.8173 79.9983 81.9083 73.3797 79.0963 67.7539L47.5685 4.67828ZM42.1049 51.2972L44.9951 26.7227C45.3468 23.7321 43.0102 21.1046 39.999 21.1046C36.9879 21.1046 34.6513 23.7321 35.003 26.7227L37.8932 51.2972C38.0188 52.3651 38.9238 53.1699 39.999 53.1699C41.0743 53.1699 41.9793 52.3651 42.1049 51.2972ZM43.7725 62.6011C43.7725 64.6845 42.0836 66.3735 40.0001 66.3735C37.9167 66.3735 36.2277 64.6845 36.2277 62.6011C36.2277 60.5176 37.9167 58.8287 40.0001 58.8287C42.0836 58.8287 43.7725 60.5176 43.7725 62.6011Z" fill="#E23123"/>
</svg>
