<svg width="22" height="27" viewBox="0 0 22 27" fill="none" xmlns="http://www.w3.org/2000/svg">
<path fill-rule="evenodd" clip-rule="evenodd" d="M4.87378 0.995606H4.84487H3.15H3.12109H3.12109C2.72573 0.995593 2.38466 0.995581 2.10373 1.01853C1.80722 1.04276 1.51231 1.09625 1.22852 1.24084C0.805159 1.45656 0.460953 1.80076 0.245238 2.22413C0.100643 2.50791 0.0471557 2.80283 0.02293 3.09934C-2.2014e-05 3.38025 -1.15625e-05 3.72131 5.54051e-07 4.11665V4.1167L2.74356e-06 4.14561V23.8413L5.54051e-07 23.8702V23.8703C-1.15625e-05 24.2656 -2.20138e-05 24.6067 0.02293 24.8876C0.0471557 25.1841 0.100643 25.479 0.245238 25.7628C0.460953 26.1862 0.805159 26.5304 1.22852 26.7461C1.51231 26.8907 1.80722 26.9442 2.10373 26.9684C2.38463 26.9913 2.72567 26.9913 3.12098 26.9913H3.12108H3.15H4.84487H4.8738H4.87389C5.26921 26.9913 5.61024 26.9913 5.89114 26.9684C6.18765 26.9442 6.48257 26.8907 6.76635 26.7461C7.18972 26.5304 7.53392 26.1862 7.74964 25.7628C7.89423 25.479 7.94772 25.1841 7.97195 24.8876C7.9949 24.6067 7.99489 24.2656 7.99487 23.8702L7.99487 23.8413V4.14561L7.99487 4.1167C7.99489 3.72134 7.9949 3.38026 7.97195 3.09934C7.94772 2.80283 7.89423 2.50791 7.74964 2.22413C7.53392 1.80076 7.18972 1.45656 6.76635 1.24084C6.48257 1.09625 6.18765 1.04276 5.89114 1.01853C5.61022 0.995581 5.26914 0.995593 4.87378 0.995606ZM18.8768 0.995606H18.8479H17.151H17.1221C16.7267 0.995593 16.3856 0.995581 16.1047 1.01853C15.8082 1.04276 15.5133 1.09625 15.2295 1.24084C14.8061 1.45656 14.4619 1.80076 14.2462 2.22413C14.1016 2.50791 14.0481 2.80283 14.0239 3.09934C14.001 3.38027 14.001 3.72134 14.001 4.1167L14.001 4.14561V23.8413L14.001 23.8702C14.001 24.2656 14.001 24.6067 14.0239 24.8876C14.0481 25.1841 14.1016 25.479 14.2462 25.7628C14.4619 26.1862 14.8061 26.5304 15.2295 26.7461C15.5133 26.8907 15.8082 26.9442 16.1047 26.9684C16.3856 26.9913 16.7266 26.9913 17.122 26.9913H17.1221H17.151H18.8479H18.8768H18.8769C19.2722 26.9913 19.6132 26.9913 19.8941 26.9684C20.1906 26.9442 20.4856 26.8907 20.7693 26.7461C21.1927 26.5304 21.5369 26.1862 21.7526 25.7628C21.8972 25.479 21.9507 25.1841 21.9749 24.8876C21.9979 24.6067 21.9979 24.2656 21.9979 23.8702L21.9979 23.8413V4.14561L21.9979 4.1167C21.9979 3.72134 21.9979 3.38026 21.9749 3.09934C21.9507 2.80283 21.8972 2.50791 21.7526 2.22413C21.5369 1.80076 21.1927 1.45656 20.7693 1.24084C20.4856 1.09625 20.1906 1.04276 19.8941 1.01853C19.6132 0.995581 19.2721 0.995593 18.8768 0.995606Z" fill="#333333"/>
</svg>
