<svg width="28" height="28" viewBox="0 0 28 28" fill="none" xmlns="http://www.w3.org/2000/svg">
<path d="M0 6C0 2.68629 2.68629 0 6 0H22C25.3137 0 28 2.68629 28 6V22C28 25.3137 25.3137 28 22 28H6C2.68629 28 0 25.3137 0 22V6Z" fill="url(#paint0_linear_540_4364)"/>
<path fill-rule="evenodd" clip-rule="evenodd" d="M12.5 6C12.5 5.17157 13.1716 4.5 14 4.5C15.7011 4.5 18.0282 5.07938 19.9643 6.54529C21.9633 8.05886 23.5 10.491 23.5 14C23.5 17.509 21.9633 19.9411 19.9643 21.4547C18.0282 22.9206 15.7011 23.5 14 23.5C12.2989 23.5 9.97183 22.9206 8.03572 21.4547C6.03667 19.9411 4.5 17.509 4.5 14C4.5 13.1716 5.17157 12.5 6 12.5C6.82843 12.5 7.5 13.1716 7.5 14C7.5 16.5145 8.55157 18.0824 9.84663 19.0629C11.2046 20.0911 12.8776 20.5 14 20.5C15.1224 20.5 16.7954 20.0911 18.1534 19.0629C19.4484 18.0824 20.5 16.5145 20.5 14C20.5 11.4855 19.4484 9.91761 18.1534 8.93706C16.7954 7.90886 15.1224 7.5 14 7.5C13.1716 7.5 12.5 6.82843 12.5 6Z" fill="white"/>
<defs>
<linearGradient id="paint0_linear_540_4364" x1="-4.17233e-07" y1="28" x2="31.4288" y2="4.6066" gradientUnits="userSpaceOnUse">
<stop stop-color="#955EB2"/>
<stop offset="1" stop-color="#DFBAEF"/>
</linearGradient>
</defs>
</svg>
