<svg width="22" height="26" viewBox="0 0 22 26" fill="none" xmlns="http://www.w3.org/2000/svg">
<path fill-rule="evenodd" clip-rule="evenodd" d="M4.87378 0H4.84487H3.15H3.12109H3.12106H3.12103C2.7257 -1.21581e-05 2.38465 -2.2646e-05 2.10373 0.0229291C1.80722 0.0471548 1.51231 0.100642 1.22852 0.245237C0.805158 0.460952 0.460951 0.805159 0.245237 1.22852C0.100642 1.51231 0.0471538 1.80722 0.0229286 2.10373C-2.42596e-05 2.38466 -1.30242e-05 2.72573 0 3.12109V3.1211V3.15V22.8457V22.8746C-1.3024e-05 23.27 -2.44681e-05 23.6111 0.0229286 23.892C0.0471538 24.1885 0.100642 24.4834 0.245237 24.7672C0.460951 25.1906 0.805158 25.5348 1.22852 25.7505C1.51231 25.8951 1.80722 25.9486 2.10373 25.9728C2.38463 25.9957 2.72567 25.9957 3.12098 25.9957H3.12108H3.15H4.84487H4.8738H4.87389C5.26921 25.9957 5.61024 25.9957 5.89114 25.9728C6.18765 25.9486 6.48256 25.8951 6.76635 25.7505C7.18971 25.5348 7.53392 25.1906 7.74964 24.7672C7.89423 24.4834 7.94772 24.1885 7.97194 23.892C7.9949 23.6111 7.99488 23.27 7.99487 22.8747V22.8746V22.8457V3.15V3.12109V3.121C7.99488 2.72568 7.9949 2.38464 7.97194 2.10373C7.94772 1.80722 7.89423 1.51231 7.74964 1.22852C7.53392 0.805159 7.18971 0.460952 6.76635 0.245237C6.48256 0.100642 6.18765 0.0471548 5.89114 0.0229291C5.61023 -2.2646e-05 5.26917 -1.21581e-05 4.87384 0H4.87381H4.87378ZM18.877 2.6358e-06H18.8481H17.1512H17.1223C16.727 -1.14905e-05 16.3859 -2.31134e-05 16.1049 0.0229297C15.8084 0.0471555 15.5135 0.100642 15.2297 0.245238C14.8064 0.460953 14.4622 0.805159 14.2465 1.22852C14.1019 1.51231 14.0484 1.80722 14.0241 2.10373C14.0012 2.38466 14.0012 2.72574 14.0012 3.1211L14.0012 3.15V22.8457L14.0012 22.8746C14.0012 23.27 14.0012 23.6111 14.0241 23.892C14.0484 24.1885 14.1019 24.4834 14.2465 24.7672C14.4622 25.1906 14.8064 25.5348 15.2297 25.7505C15.5135 25.8951 15.8084 25.9486 16.1049 25.9728C16.3859 25.9957 16.7269 25.9957 17.1222 25.9957H17.1223H17.1512H18.8481H18.877H18.8771C19.2724 25.9957 19.6135 25.9957 19.8944 25.9728C20.1909 25.9486 20.4858 25.8951 20.7696 25.7505C21.1929 25.5348 21.5371 25.1906 21.7529 24.7672C21.8975 24.4834 21.9509 24.1885 21.9752 23.892C21.9981 23.6111 21.9981 23.27 21.9981 22.8746V22.8457V3.15V3.12109C21.9981 2.72573 21.9981 2.38466 21.9752 2.10373C21.9509 1.80722 21.8975 1.51231 21.7529 1.22852C21.5371 0.805159 21.1929 0.460953 20.7696 0.245238C20.4858 0.100642 20.1909 0.0471555 19.8944 0.0229297C19.6134 -2.31134e-05 19.2724 -1.14905e-05 18.877 2.6358e-06Z" fill="#7C7C7C"/>
</svg>
