<svg width="28" height="28" viewBox="0 0 28 28" fill="none" xmlns="http://www.w3.org/2000/svg">
<path fill-rule="evenodd" clip-rule="evenodd" d="M0 14C0 6.26801 6.26801 0 14 0C21.732 0 28 6.26801 28 14C28 21.732 21.732 28 14 28C6.26801 28 0 21.732 0 14ZM14 8.375C15.2081 8.375 16.1875 7.39562 16.1875 6.1875C16.1875 4.97938 15.2081 4 14 4C12.7919 4 11.8125 4.97938 11.8125 6.1875C11.8125 7.39562 12.7919 8.375 14 8.375ZM6.18391 9.30891C6.3817 9.11112 6.64997 9 6.92969 9H21.0703V8.99883C21.35 8.99883 21.6183 9.10995 21.8161 9.30774C22.0139 9.50553 22.125 9.7738 22.125 10.0535C22.125 10.3332 22.0139 10.6015 21.8161 10.7993C21.6183 10.9971 21.35 11.1082 21.0703 11.1082H17.0832C16.8344 11.1082 16.5082 11.2301 16.3301 11.6941C16.1211 12.2344 16.2234 13.2777 16.3523 14.0859L16.5215 15.041C16.5231 15.0429 16.5243 15.045 16.5251 15.0474C16.5258 15.0498 16.5261 15.0522 16.5258 15.0547L17.8777 22.7426C17.9049 22.8811 17.9042 23.0237 17.8757 23.162C17.8472 23.3004 17.7915 23.4316 17.7118 23.5482C17.632 23.6647 17.5299 23.7642 17.4113 23.8409C17.2927 23.9176 17.1601 23.9699 17.0211 23.9947C16.8821 24.0196 16.7395 24.0166 16.6017 23.9858C16.4639 23.9551 16.3336 23.8972 16.2184 23.8155C16.1031 23.7339 16.0053 23.6301 15.9306 23.5103C15.8559 23.3905 15.8058 23.257 15.7832 23.1176L14.8492 17.7691C14.8492 17.7691 14.5559 16.5 14 16.5C13.4531 16.5 13.1535 17.7691 13.1535 17.7691L12.2195 23.1129C12.197 23.2511 12.1472 23.3834 12.0731 23.5022C11.999 23.621 11.9021 23.7238 11.7879 23.8048C11.6737 23.8858 11.5446 23.9434 11.408 23.974C11.2714 24.0047 11.13 24.008 10.9922 23.9836C10.7133 23.9333 10.4658 23.7747 10.3036 23.5423C10.1415 23.3099 10.0779 23.0228 10.127 22.7437L11.4785 15.0559C11.4803 15.0541 11.4816 15.0519 11.4824 15.0496C11.4833 15.0472 11.4835 15.0447 11.4832 15.0422L11.652 14.0871C11.7809 13.2789 11.8832 12.2355 11.6742 11.6953C11.4953 11.2301 11.1793 11.1094 10.9094 11.1094H6.92969C6.64997 11.1094 6.3817 10.9983 6.18391 10.8005C5.98612 10.6027 5.875 10.3344 5.875 10.0547C5.875 9.77497 5.98612 9.5067 6.18391 9.30891Z" fill="#525252"/>
</svg>
