<svg width="22" height="24" viewBox="0 0 22 24" fill="none" xmlns="http://www.w3.org/2000/svg">
<path d="M19.5556 2.4H18.3333V0H15.8889V2.4H6.11111V0H3.66667V2.4H2.44444C1.08778 2.4 0.0122222 3.48 0.0122222 4.8L0 21.6C0 22.2365 0.257539 22.847 0.715961 23.2971C1.17438 23.7471 1.79614 24 2.44444 24H19.5556C20.9 24 22 22.92 22 21.6V4.8C22 3.48 20.9 2.4 19.5556 2.4ZM19.5556 21.6H2.44444V9.6H19.5556V21.6ZM7.33333 14.4H4.88889V12H7.33333V14.4ZM12.2222 14.4H9.77778V12H12.2222V14.4ZM17.1111 14.4H14.6667V12H17.1111V14.4ZM7.33333 19.2H4.88889V16.8H7.33333V19.2ZM12.2222 19.2H9.77778V16.8H12.2222V19.2ZM17.1111 19.2H14.6667V16.8H17.1111V19.2Z" fill="#333333"/>
</svg>
