<svg width="26" height="26" viewBox="0 0 26 26" fill="none" xmlns="http://www.w3.org/2000/svg">
<path d="M11.1671 16.0429V16.2412H13.9227V16.0429C13.9282 15.504 13.9972 15.0515 14.1296 14.6854C14.2675 14.3143 14.4771 13.9914 14.7585 13.7169C15.0453 13.4423 15.4122 13.1779 15.8591 12.9237C16.3666 12.6441 16.8052 12.3263 17.1748 11.9704C17.5444 11.6146 17.8286 11.2078 18.0272 10.7502C18.2313 10.2927 18.3333 9.77407 18.3333 9.19447C18.3333 8.33524 18.1071 7.59295 17.6548 6.96759C17.2079 6.33715 16.5818 5.85161 15.7763 5.51096C14.9764 5.17032 14.0496 5 12.9959 5C12.0304 5 11.1477 5.16269 10.3478 5.48808C9.5534 5.81347 8.91346 6.30156 8.42798 6.95234C7.94802 7.60311 7.69425 8.4115 7.66667 9.3775H10.6126C10.6402 8.89959 10.7671 8.50556 10.9933 8.19543C11.225 7.8802 11.5146 7.64633 11.8622 7.4938C12.2152 7.33619 12.5876 7.25739 12.9793 7.25739C13.4041 7.25739 13.7875 7.33874 14.1296 7.50143C14.4771 7.66412 14.753 7.89291 14.9571 8.1878C15.1612 8.48268 15.2633 8.83095 15.2633 9.2326C15.2633 9.5885 15.186 9.91134 15.0315 10.2011C14.8771 10.4859 14.6647 10.7452 14.3944 10.979C14.1296 11.2078 13.8289 11.4188 13.4924 11.612C13.0014 11.8916 12.5849 12.1992 12.2428 12.5348C11.9008 12.8653 11.636 13.3025 11.4484 13.8465C11.2664 14.3905 11.1726 15.1227 11.1671 16.0429Z" fill="white"/>
<path d="M11.3243 20.5119C11.6829 20.8373 12.1104 21 12.6069 21C12.9379 21 13.2386 20.9263 13.5089 20.7788C13.7848 20.6263 14.0054 20.4229 14.1709 20.1687C14.342 19.9145 14.4275 19.6323 14.4275 19.3222C14.4275 18.8646 14.2454 18.4732 13.8813 18.1478C13.5227 17.8224 13.0979 17.6597 12.6069 17.6597C12.1104 17.6597 11.6829 17.8224 11.3243 18.1478C10.9657 18.4732 10.7864 18.8646 10.7864 19.3222C10.7864 19.79 10.9657 20.1865 11.3243 20.5119Z" fill="white"/>
<path fill-rule="evenodd" clip-rule="evenodd" d="M10.5556 1.2429e-07C8.91304 -6.78985e-06 7.61909 -1.21891e-05 6.57778 0.0850665C5.51543 0.171864 4.62827 0.352174 3.82207 0.762955C2.50493 1.43407 1.43407 2.50493 0.762955 3.82207C0.352174 4.62827 0.171864 5.51543 0.0850665 6.57778C-1.21891e-05 7.61909 -6.78985e-06 8.91304 1.2429e-07 10.5556V15.4444C-6.78985e-06 17.087 -1.21891e-05 18.3809 0.0850665 19.4222C0.171864 20.4846 0.352174 21.3717 0.762955 22.1779C1.43407 23.4951 2.50493 24.5659 3.82207 25.237C4.62827 25.6478 5.51543 25.8281 6.57778 25.9149C7.61909 26 8.91303 26 10.5556 26H15.4444C17.087 26 18.3809 26 19.4222 25.9149C20.4846 25.8281 21.3717 25.6478 22.1779 25.237C23.4951 24.5659 24.5659 23.4951 25.237 22.1779C25.6478 21.3717 25.8281 20.4846 25.9149 19.4222C26 18.3809 26 17.087 26 15.4444V10.5556C26 8.91303 26 7.61909 25.9149 6.57778C25.8281 5.51543 25.6478 4.62827 25.237 3.82207C24.5659 2.50493 23.4951 1.43407 22.1779 0.762955C21.3717 0.352174 20.4846 0.171864 19.4222 0.0850665C18.3809 -1.21891e-05 17.087 -6.78985e-06 15.4444 1.2429e-07H10.5556ZM4.73005 2.54497C5.20731 2.30179 5.80197 2.15512 6.74064 2.07842C7.69099 2.00078 8.90334 2 10.6 2H15.4C17.0967 2 18.309 2.00078 19.2594 2.07842C20.198 2.15512 20.7927 2.30179 21.27 2.54497C22.2108 3.02433 22.9757 3.78924 23.455 4.73005C23.6982 5.20731 23.8449 5.80197 23.9216 6.74064C23.9992 7.69099 24 8.90334 24 10.6V15.4C24 17.0967 23.9992 18.309 23.9216 19.2594C23.8449 20.198 23.6982 20.7927 23.455 21.27C22.9757 22.2108 22.2108 22.9757 21.27 23.455C20.7927 23.6982 20.198 23.8449 19.2594 23.9216C18.309 23.9992 17.0967 24 15.4 24H10.6C8.90334 24 7.69099 23.9992 6.74064 23.9216C5.80197 23.8449 5.20731 23.6982 4.73005 23.455C3.78924 22.9757 3.02433 22.2108 2.54497 21.27C2.30179 20.7927 2.15512 20.198 2.07842 19.2594C2.00078 18.309 2 17.0967 2 15.4V10.6C2 8.90334 2.00078 7.69099 2.07842 6.74064C2.15512 5.80197 2.30179 5.20731 2.54497 4.73005C3.02433 3.78924 3.78924 3.02433 4.73005 2.54497Z" fill="white"/>
</svg>
