<svg width="24" height="25" viewBox="0 0 24 25" fill="none" xmlns="http://www.w3.org/2000/svg">
<path fill-rule="evenodd" clip-rule="evenodd" d="M16.5978 5.5L14.9069 3.84165L6.71379 12.0207C6.48621 12.2478 6.31034 12.511 6.18621 12.8101C6.06207 13.1099 6 13.4251 6 13.7556V16.7608C6 17.1119 6.11917 17.4064 6.35752 17.6443C6.59503 17.8814 6.88966 18 7.24138 18H10.2517C10.5828 18 10.8985 17.9331 11.1989 17.7992C11.4985 17.6646 11.7621 17.4836 11.9897 17.2565L20.2138 9.04647L18.637 7.5L10 16H8V14L16.5978 5.5ZM18.5 5.5L21.1347 8.12712L23.2862 5.97935C23.7621 5.5043 24 4.92599 24 4.24441C24 3.56282 23.7621 2.98451 23.2862 2.50947L21.5483 0.743546C21.0724 0.247849 20.4881 0 19.7955 0C19.1019 0 18.5069 0.247849 18.0103 0.743546L15.8772 2.87304L18.5 5.5ZM19.12 18.12V13.1862L21.12 11.1862V18.12C21.12 21.4337 18.4337 24.12 15.12 24.12H6C2.68629 24.12 0 21.4337 0 18.12V9C0 5.68629 2.68629 3 6 3H13.0145L11.0145 5H6C3.79086 5 2 6.79086 2 9V18.12C2 20.3291 3.79086 22.12 6 22.12H15.12C17.3291 22.12 19.12 20.3291 19.12 18.12Z" fill="#333333"/>
</svg>
