<svg width="20" height="20" viewBox="0 0 20 20" fill="none" xmlns="http://www.w3.org/2000/svg">
<path fill-rule="evenodd" clip-rule="evenodd" d="M10 0C4.47715 0 0 4.47715 0 10C0 15.5228 4.47715 20 10 20C15.5228 20 20 15.5228 20 10C20 4.47715 15.5228 0 10 0ZM8.41492 1.54104C4.6427 2.24348 1.73578 5.40693 1.42322 9.30233H5.61143C5.79858 6.49682 6.77389 3.80768 8.41492 1.54104ZM11.5851 1.54104C13.2261 3.80768 14.2014 6.49682 14.3886 9.30233H18.5768C18.2642 5.40693 15.3573 2.24348 11.5851 1.54104ZM12.9898 9.30233C12.7867 6.5435 11.7427 3.91304 10 1.76626C8.25728 3.91304 7.21331 6.5435 7.0102 9.30233H12.9898ZM7.0102 10.6977H12.9898C12.7867 13.4565 11.7427 16.087 10 18.2337C8.25728 16.087 7.21331 13.4565 7.0102 10.6977ZM5.61143 10.6977H1.42322C1.73578 14.5931 4.6427 17.7565 8.41491 18.459C6.77389 16.1923 5.79858 13.5032 5.61143 10.6977ZM11.5851 18.459C13.2261 16.1923 14.2014 13.5032 14.3886 10.6977H18.5768C18.2642 14.5931 15.3573 17.7565 11.5851 18.459Z" fill="#333333"/>
</svg>
