<svg width="27" height="27" viewBox="0 0 27 27" fill="none" xmlns="http://www.w3.org/2000/svg">
<path fill-rule="evenodd" clip-rule="evenodd" d="M11.1304 0.000378728L11.0095 0.000189424C10.5126 -0.000977278 10.0143 -0.00214708 9.56683 0.173826C9.17737 0.32699 8.83258 0.575475 8.56409 0.896497C8.25562 1.26532 8.09913 1.73838 7.94305 2.21018L7.90498 2.32494L7.47961 3.60072H3.40029H1C0.447715 3.60072 0 4.04844 0 4.60072C0 5.15301 0.447715 5.60072 1 5.60072H2.45738L3.15919 17.5312L3.16168 17.5735C3.23752 18.8629 3.29793 19.8899 3.41312 20.7178C3.53125 21.5668 3.71627 22.2879 4.08544 22.9442C4.68301 24.0066 5.59 24.8618 6.68566 25.396C7.36252 25.7259 8.09321 25.8683 8.94765 25.9364C9.78089 26.0027 10.8097 26.0027 12.1013 26.0027H12.1014H12.1437H13.8592H13.9014H13.9015C15.1932 26.0027 16.222 26.0027 17.0552 25.9364C17.9097 25.8683 18.6403 25.7259 19.3172 25.396C20.4129 24.8618 21.3199 24.0066 21.9174 22.9442C22.2866 22.2879 22.4716 21.5668 22.5897 20.7178C22.7049 19.8899 22.7653 18.863 22.8412 17.5736L22.8412 17.5735L22.8412 17.5734L22.8437 17.5312L23.5455 5.60072H25.0029C25.5552 5.60072 26.0029 5.15301 26.0029 4.60072C26.0029 4.04844 25.5552 3.60072 25.0029 3.60072H22.6026H18.5227L18.0974 2.32494L18.0593 2.21018C17.9032 1.73837 17.7467 1.26532 17.4383 0.896497C17.1698 0.575475 16.825 0.32699 16.4355 0.173826C15.9881 -0.00214708 15.4898 -0.000977278 14.9928 0.000189424L14.8719 0.000378728H11.1304ZM16.4145 3.60072L16.2001 2.95755C15.9763 2.28657 15.9354 2.21709 15.9041 2.1796C15.8504 2.1154 15.7814 2.0657 15.7035 2.03507C15.6581 2.01718 15.5792 2.00038 14.8719 2.00038H11.1304C10.4231 2.00038 10.3443 2.01718 10.2988 2.03507C10.2209 2.0657 10.152 2.1154 10.0983 2.1796C10.0669 2.21709 10.026 2.28657 9.8023 2.95755L9.58785 3.60072H16.4145ZM5.15574 17.4138L4.46084 5.60072H21.542L20.8471 17.4138C20.7682 18.755 20.7118 19.7025 20.6088 20.4422C20.5076 21.1699 20.3708 21.6143 20.1743 21.9637C19.7759 22.672 19.1712 23.2421 18.4408 23.5982C18.0805 23.7739 17.6288 23.8843 16.8964 23.9427C16.1519 24.002 15.2027 24.0027 13.8592 24.0027H12.1437C10.8001 24.0027 9.85099 24.002 9.10648 23.9427C8.37409 23.8843 7.92242 23.7739 7.56209 23.5982C6.83165 23.2421 6.22699 22.672 5.82861 21.9637C5.63209 21.6143 5.49529 21.1699 5.39404 20.4422C5.29111 19.7025 5.23464 18.755 5.15574 17.4138ZM11.6019 10.6015C11.6019 10.0492 11.1542 9.60145 10.6019 9.60145C10.0497 9.60145 9.60194 10.0492 9.60194 10.6015V19.0023C9.60194 19.5546 10.0497 20.0023 10.6019 20.0023C11.1542 20.0023 11.6019 19.5546 11.6019 19.0023V10.6015ZM15.4022 9.60145C15.9545 9.60145 16.4022 10.0492 16.4022 10.6015V19.0023C16.4022 19.5546 15.9545 20.0023 15.4022 20.0023C14.8499 20.0023 14.4022 19.5546 14.4022 19.0023V10.6015C14.4022 10.0492 14.8499 9.60145 15.4022 9.60145Z" fill="#7C7C7C"/>
</svg>
