<svg width="24" height="24" viewBox="0 0 24 24" fill="none" xmlns="http://www.w3.org/2000/svg">
<path fill-rule="evenodd" clip-rule="evenodd" d="M12 24C18.6274 24 24 18.6274 24 12C24 5.37258 18.6274 0 12 0C5.37258 0 0 5.37258 0 12C0 18.6274 5.37258 24 12 24ZM16.7 7.2974C17.1017 7.69914 17.1017 8.35049 16.7 8.75223L13.4544 11.9983L16.7 15.2444C17.1017 15.6462 17.1017 16.2975 16.7 16.6993C16.2983 17.101 15.6471 17.101 15.2454 16.6993L11.9998 13.4532L8.7544 16.6991C8.35272 17.1008 7.70147 17.1008 7.29979 16.6991C6.89812 16.2974 6.89812 15.646 7.29979 15.2443L10.5452 11.9983L7.29979 8.75239C6.89812 8.35065 6.89812 7.6993 7.29979 7.29755C7.70147 6.89581 8.35272 6.89581 8.7544 7.29756L11.9998 10.5435L15.2454 7.2974C15.6471 6.89566 16.2983 6.89566 16.7 7.2974Z" fill="#7C7C7C"/>
</svg>
