<svg width="28" height="29" viewBox="0 0 28 29" fill="none" xmlns="http://www.w3.org/2000/svg">
<path d="M14 0.5C6.2804 0.5 0 6.7804 0 14.5C0 22.2196 6.2804 28.5 14 28.5C21.7196 28.5 28 22.2196 28 14.5C28 6.7804 21.7196 0.5 14 0.5ZM14 6.24C14.36 6.24 14.7118 6.34674 15.0111 6.54673C15.3104 6.74671 15.5437 7.03095 15.6815 7.36352C15.8192 7.69608 15.8553 8.06202 15.785 8.41506C15.7148 8.76811 15.5415 9.0924 15.2869 9.34694C15.0324 9.60147 14.7081 9.7748 14.3551 9.84503C14.002 9.91525 13.6361 9.87921 13.3035 9.74146C12.971 9.60371 12.6867 9.37043 12.4867 9.07114C12.2867 8.77184 12.18 8.41996 12.18 8.06C12.18 7.57731 12.3717 7.11438 12.7131 6.77307C13.0544 6.43175 13.5173 6.24 14 6.24ZM17.36 22.06H11.2C10.903 22.06 10.6181 21.942 10.408 21.732C10.198 21.5219 10.08 21.237 10.08 20.94C10.08 20.643 10.198 20.3581 10.408 20.148C10.6181 19.938 10.903 19.82 11.2 19.82H13.16V13.66H12.04C11.743 13.66 11.4581 13.542 11.248 13.332C11.038 13.1219 10.92 12.837 10.92 12.54C10.92 12.243 11.038 11.9581 11.248 11.748C11.4581 11.538 11.743 11.42 12.04 11.42H14.28C14.577 11.42 14.8619 11.538 15.072 11.748C15.282 11.9581 15.4 12.243 15.4 12.54V19.82H17.36C17.657 19.82 17.9419 19.938 18.152 20.148C18.362 20.3581 18.48 20.643 18.48 20.94C18.48 21.237 18.362 21.5219 18.152 21.732C17.9419 21.942 17.657 22.06 17.36 22.06Z" fill="url(#paint0_linear_1049_115)"/>
<defs>
<linearGradient id="paint0_linear_1049_115" x1="-4.17233e-07" y1="28.5" x2="31.4288" y2="5.1066" gradientUnits="userSpaceOnUse">
<stop stop-color="#955EB2"/>
<stop offset="1" stop-color="#DFBAEF"/>
</linearGradient>
</defs>
</svg>
