<svg width="26" height="30" viewBox="0 0 26 30" fill="none" xmlns="http://www.w3.org/2000/svg">
<path d="M10.6599 27.8049C11.2297 27.8049 11.6915 28.2963 11.6915 28.9024C11.6915 29.5086 11.2297 30 10.6599 30H9.78925C8.28703 30 7.09656 30 6.137 29.9166C5.15575 29.8313 4.32548 29.6533 3.56735 29.2424C2.338 28.5759 1.3385 27.5125 0.71211 26.2046C0.325825 25.398 0.158557 24.5146 0.0783856 23.4706C-1.33887e-05 22.4497 -7.40565e-06 21.1832 1.47827e-07 19.5849V10.4151C-6.89763e-06 8.81689 -1.24797e-05 7.55027 0.0783863 6.52937C0.158557 5.48538 0.325826 4.60203 0.712111 3.79543C1.3385 2.48748 2.338 1.42407 3.56736 0.757638C4.32548 0.346655 5.15575 0.168694 6.137 0.0833967C7.09656 -1.39475e-05 8.28702 -8.31382e-06 9.78922 1.7026e-07H9.97219C10.5419 1.7026e-07 11.0038 0.491396 11.0038 1.09756C11.0038 1.70373 10.5419 2.19512 9.97219 2.19512H9.83464C8.27694 2.19512 7.17071 2.19598 6.30501 2.27123C5.45135 2.34543 4.92283 2.48648 4.50403 2.71351C3.66289 3.16949 2.97903 3.89708 2.55045 4.792C2.33706 5.23757 2.20449 5.79988 2.13474 6.70812C2.06401 7.62917 2.06321 8.80612 2.06321 10.4634L2.06321 19.5366C2.06321 21.1939 2.06401 22.3708 2.13474 23.2919C2.20449 24.2001 2.33706 24.7624 2.55044 25.208C2.97903 26.1029 3.66289 26.8305 4.50403 27.2865C4.92283 27.5135 5.45135 27.6546 6.30501 27.7288C7.17071 27.804 8.27694 27.8049 9.83464 27.8049H10.6599Z" fill="#525252"/>
<path d="M16.8233 23.2922C16.4205 22.8635 16.4205 22.1686 16.8233 21.74L22.0506 16.0977H8.0354C7.46566 16.0977 7.00379 15.6063 7.00379 15.0001C7.00379 14.394 7.46566 13.9026 8.0354 13.9026H22.0506L16.8233 8.2603C16.4205 7.83168 16.4205 7.13674 16.8233 6.70812C17.2262 6.2795 17.8794 6.2795 18.2823 6.70812L26 15.0001L18.2823 23.2922C17.8794 23.7208 17.2262 23.7208 16.8233 23.2922Z" fill="#525252"/>
</svg>
