<svg width="24" height="30" viewBox="0 0 24 30" fill="none" xmlns="http://www.w3.org/2000/svg">
<path d="M4.0086 0.60337C4.83695 0.563329 5.62113 0.88236 6.3951 1.3046C7.16968 1.72716 8.11067 2.35666 9.27892 3.13819L20.011 10.3175C20.931 10.9329 21.6839 11.4366 22.2439 11.8887C22.8157 12.3503 23.3057 12.8493 23.5769 13.496C23.9812 14.4601 23.9812 15.5399 23.5769 16.504C23.3057 17.1507 22.8157 17.6496 22.2439 18.1113C21.6839 18.5634 20.931 19.067 20.011 19.6825L9.27894 26.8617C8.11071 27.6433 7.16967 28.2728 6.3951 28.6954C5.62113 29.1176 4.83695 29.4366 4.0086 29.3966C2.80557 29.3384 1.69001 28.7674 0.95921 27.8358C0.456017 27.1943 0.281936 26.3848 0.201045 25.525C0.120092 24.6646 0.120103 23.5535 0.120118 22.1742V7.82592C0.120103 6.44657 0.120092 5.33539 0.201045 4.47498C0.281936 3.61519 0.456017 2.80568 0.95921 2.16418C1.69001 1.23252 2.80557 0.661523 4.0086 0.60337Z" fill="white"/>
</svg>
