<svg width="82" height="82" viewBox="0 0 82 82" fill="none" xmlns="http://www.w3.org/2000/svg">
<path fill-rule="evenodd" clip-rule="evenodd" d="M31.7986 81.3409H31.664C27.2502 81.3409 23.75 81.3409 20.9192 81.1328C18.0257 80.92 15.5631 80.4764 13.2815 79.4479C8.51681 77.3 4.70146 73.4847 2.55359 68.72C1.52509 66.4384 1.08148 63.9758 0.868736 61.0823C0.660607 58.2515 0.660624 54.7514 0.660645 50.3376V50.3375V50.2029L0.660646 31.6452V31.5128V31.5128C0.660625 27.1706 0.660609 23.7272 0.86219 20.9412C1.06822 18.0936 1.49777 15.6687 2.49402 13.4178C4.65012 8.54649 8.54356 4.65305 13.4149 2.49695C15.6657 1.5007 18.0907 1.07115 20.9382 0.86512C23.7242 0.663536 27.1676 0.663552 31.5098 0.663575H31.6422V7.49521C27.1382 7.49521 23.9418 7.49729 21.4313 7.67894C18.954 7.85818 17.4109 8.19918 16.1799 8.74403C12.8618 10.2127 10.2097 12.8647 8.74109 16.1828C8.19625 17.4138 7.85525 18.957 7.67601 21.4342C7.49436 23.9447 7.49228 27.1412 7.49228 31.6452L7.49228 50.2029C7.49228 54.7813 7.49443 58.0305 7.68198 60.5813C7.86702 63.0981 8.219 64.6643 8.78167 65.9124C10.2447 69.158 12.8435 71.7568 16.0891 73.2198C17.3372 73.7825 18.9034 74.1345 21.4202 74.3195C23.971 74.5071 27.2202 74.5092 31.7986 74.5092V81.3409ZM50.4853 66.6852C49.179 65.354 49.199 63.216 50.5301 61.9096L69.0039 43.7796L28.6643 43.7796C26.7993 43.7796 25.2873 42.2677 25.2873 40.4027C25.2873 38.5376 26.7993 37.0257 28.6643 37.0257L67.7863 37.0257L50.5301 20.0906C49.199 18.7843 49.179 16.6462 50.4853 15.3151C51.7916 13.984 53.9297 13.9639 55.2608 15.2703L79.0226 38.59L81.4785 41.0001L79.0226 43.4103L55.2608 66.73C53.9297 68.0363 51.7916 68.0163 50.4853 66.6852Z" fill="#959595"/>
</svg>
