<svg width="26" height="26" viewBox="0 0 26 26" fill="none" xmlns="http://www.w3.org/2000/svg">
<path d="M14 13.9286C14 13.4157 13.5523 13 13 13C12.4477 13 12 13.4157 12 13.9286V17.6429C12 18.1557 12.4477 18.5714 13 18.5714C13.5523 18.5714 14 18.1557 14 17.6429V13.9286Z" fill="#959595"/>
<path fill-rule="evenodd" clip-rule="evenodd" d="M13.3095 2.29411e-07H12.6905C11.6067 -8.7e-06 10.7326 -1.59031e-05 10.0247 0.0536888C9.29586 0.108985 8.65567 0.225811 8.06338 0.506042C7.12257 0.951168 6.35767 1.66144 5.8783 2.53504C5.57651 3.08503 5.4507 3.67949 5.39115 4.35628C5.33331 5.01359 5.33332 5.8253 5.33333 6.83166V6.94141C4.64214 7.02924 4.029 7.18038 3.45806 7.45051C2.26637 8.01434 1.29749 8.91401 0.690292 10.0206C0.315842 10.703 0.153699 11.4503 0.0759837 12.3336C-1.35153e-05 13.1973 -7.47699e-06 14.2689 1.52403e-07 15.621V17.1885C-7.47699e-06 18.5407 -1.35153e-05 19.6122 0.0759837 20.4759C0.153699 21.3592 0.315842 22.1065 0.690292 22.7889C1.29749 23.8955 2.26637 24.7952 3.45806 25.359C4.19296 25.7067 4.99779 25.8573 5.94898 25.9294C6.87911 26 8.03307 26 9.48921 26H16.5107C17.9668 26 19.1209 26 20.051 25.9294C21.0022 25.8573 21.807 25.7067 22.5419 25.359C23.7336 24.7952 24.7025 23.8955 25.3097 22.7889C25.6842 22.1065 25.8463 21.3592 25.924 20.4759C26 19.6122 26 18.5407 26 17.1885L26 13.2506C26 12.7322 26.0001 12.4022 25.9695 12.114C25.6859 9.44036 23.4925 7.30134 20.6667 6.88319V6.83168C20.6667 5.82531 20.6667 5.0136 20.6088 4.35628C20.5493 3.67949 20.4235 3.08503 20.1217 2.53504C19.6423 1.66144 18.8774 0.951168 17.9366 0.506042C17.3443 0.225811 16.7041 0.108985 15.9753 0.0536888C15.2674 -1.59031e-05 14.3932 -8.7e-06 13.3095 2.29411e-07ZM9.48931 6.80952C8.68228 6.80952 7.96807 6.80952 7.33333 6.82153C7.33337 5.79275 7.33491 5.07122 7.38451 4.50751C7.43395 3.94557 7.52612 3.62271 7.66031 3.37817C7.94793 2.854 8.40687 2.42784 8.97136 2.16077C9.23471 2.03617 9.5824 1.95058 10.1876 1.90466C10.8044 1.85787 11.5967 1.85714 12.7333 1.85714H13.2667C14.4033 1.85714 15.1956 1.85787 15.8124 1.90466C16.4176 1.95058 16.7653 2.03617 17.0286 2.16077C17.5931 2.42784 18.0521 2.854 18.3397 3.37817C18.4739 3.62271 18.566 3.94557 18.6155 4.50751C18.6649 5.06903 18.6666 5.78713 18.6667 6.80952H9.48931ZM20.0914 8.68604C19.8919 8.66779 19.6429 8.66667 19 8.66667H9.53333C8.02336 8.66667 6.95102 8.66739 6.11184 8.73106C5.28434 8.79384 4.772 8.91316 4.36604 9.10524C3.55067 9.49101 2.88776 10.1066 2.4723 10.8637C2.26546 11.2407 2.13695 11.7164 2.06934 12.4848C2.00078 13.264 2 14.2598 2 15.6619V17.1476C2 18.5497 2.00078 19.5455 2.06934 20.3247C2.13695 21.0931 2.26546 21.5689 2.4723 21.9458C2.88776 22.7029 3.55067 23.3185 4.36604 23.7043C4.772 23.8964 5.28434 24.0157 6.11184 24.0785C6.95102 24.1421 8.02336 24.1429 9.53333 24.1429H16.4667C17.9766 24.1429 19.049 24.1421 19.8882 24.0785C20.7157 24.0157 21.228 23.8964 21.634 23.7043C22.4493 23.3185 23.1122 22.7029 23.5277 21.9458C23.7345 21.5689 23.863 21.0931 23.9307 20.3247C23.9992 19.5455 24 18.5497 24 17.1476V13.3095C24 12.7125 23.9988 12.4814 23.9791 12.2961C23.7765 10.3857 22.1488 8.8742 20.0914 8.68604Z" fill="#959595"/>
</svg>
