<svg width="26" height="27" viewBox="0 0 26 27" fill="none" xmlns="http://www.w3.org/2000/svg">
<mask id="path-1-inside-1_370_2931" fill="white">
<path d="M14.4689 0.831065C13.5367 0.389645 12.4633 0.389645 11.5311 0.831065C10.8904 1.13446 10.4271 1.70213 10.0129 2.34812C9.59891 2.99363 9.14323 3.8688 8.57808 4.95423L8.01244 6.04055C7.77788 6.49105 7.74008 6.54531 7.70662 6.58108C7.65792 6.63312 7.60035 6.67555 7.53676 6.70624C7.49306 6.72733 7.43092 6.7467 6.94048 6.83043L6.1301 6.96877C4.79307 7.19701 3.72396 7.37951 2.91745 7.59542C2.12075 7.80871 1.38343 8.10011 0.883226 8.68014C0.166237 9.51154 -0.137996 10.6361 0.0585274 11.7285C0.195632 12.4907 0.680778 13.1314 1.25602 13.7367C1.83834 14.3494 2.66235 15.0729 3.69285 15.9776L4.0938 16.3296C4.5893 16.7646 4.64573 16.8326 4.67557 16.8866C4.71959 16.9661 4.74501 17.055 4.74984 17.1464C4.75311 17.2083 4.74144 17.2969 4.5536 17.9382L4.53914 17.9876C4.07463 19.5736 3.70736 20.8275 3.51076 21.796C3.32035 22.7339 3.23036 23.6506 3.57231 24.4164C4.05258 25.492 5.01561 26.257 6.14939 26.4637C6.95665 26.6109 7.7972 26.2904 8.63246 25.8647C9.49488 25.4252 10.5831 24.744 11.9594 23.8825L12.2232 23.7174C12.7447 23.3909 12.8194 23.3589 12.8753 23.3461C12.9574 23.3273 13.0426 23.3273 13.1247 23.3461C13.1806 23.3589 13.2553 23.3909 13.7768 23.7174L14.0406 23.8825C15.4169 24.744 16.5051 25.4252 17.3675 25.8647C18.2028 26.2904 19.0433 26.6109 19.8506 26.4637C20.9844 26.257 21.9474 25.492 22.4277 24.4164C22.7696 23.6506 22.6796 22.7339 22.4892 21.796C22.2926 20.8274 21.9254 19.5735 21.4608 17.9875L21.4464 17.9382C21.2586 17.2969 21.2469 17.2083 21.2502 17.1464C21.255 17.055 21.2804 16.9661 21.3244 16.8866C21.3543 16.8326 21.4107 16.7646 21.9062 16.3296L22.3072 15.9776C23.3377 15.0729 24.1617 14.3494 24.744 13.7367C25.3192 13.1314 25.8044 12.4907 25.9415 11.7285C26.138 10.6361 25.8338 9.51154 25.1168 8.68014C24.6166 8.10011 23.8793 7.80871 23.0826 7.59542C22.2761 7.37951 21.207 7.19701 19.87 6.96878L19.0595 6.83043C18.5691 6.7467 18.5069 6.72733 18.4632 6.70624C18.3996 6.67555 18.3421 6.63312 18.2934 6.58108C18.2599 6.54531 18.2221 6.49105 17.9876 6.04055L17.4219 4.95413C16.8567 3.86875 16.4011 2.99361 15.9871 2.34812C15.5729 1.70213 15.1096 1.13446 14.4689 0.831065Z"/>
</mask>
<path d="M14.4689 0.831065C13.5367 0.389645 12.4633 0.389645 11.5311 0.831065C10.8904 1.13446 10.4271 1.70213 10.0129 2.34812C9.59891 2.99363 9.14323 3.8688 8.57808 4.95423L8.01244 6.04055C7.77788 6.49105 7.74008 6.54531 7.70662 6.58108C7.65792 6.63312 7.60035 6.67555 7.53676 6.70624C7.49306 6.72733 7.43092 6.7467 6.94048 6.83043L6.1301 6.96877C4.79307 7.19701 3.72396 7.37951 2.91745 7.59542C2.12075 7.80871 1.38343 8.10011 0.883226 8.68014C0.166237 9.51154 -0.137996 10.6361 0.0585274 11.7285C0.195632 12.4907 0.680778 13.1314 1.25602 13.7367C1.83834 14.3494 2.66235 15.0729 3.69285 15.9776L4.0938 16.3296C4.5893 16.7646 4.64573 16.8326 4.67557 16.8866C4.71959 16.9661 4.74501 17.055 4.74984 17.1464C4.75311 17.2083 4.74144 17.2969 4.5536 17.9382L4.53914 17.9876C4.07463 19.5736 3.70736 20.8275 3.51076 21.796C3.32035 22.7339 3.23036 23.6506 3.57231 24.4164C4.05258 25.492 5.01561 26.257 6.14939 26.4637C6.95665 26.6109 7.7972 26.2904 8.63246 25.8647C9.49488 25.4252 10.5831 24.744 11.9594 23.8825L12.2232 23.7174C12.7447 23.3909 12.8194 23.3589 12.8753 23.3461C12.9574 23.3273 13.0426 23.3273 13.1247 23.3461C13.1806 23.3589 13.2553 23.3909 13.7768 23.7174L14.0406 23.8825C15.4169 24.744 16.5051 25.4252 17.3675 25.8647C18.2028 26.2904 19.0433 26.6109 19.8506 26.4637C20.9844 26.257 21.9474 25.492 22.4277 24.4164C22.7696 23.6506 22.6796 22.7339 22.4892 21.796C22.2926 20.8274 21.9254 19.5735 21.4608 17.9875L21.4464 17.9382C21.2586 17.2969 21.2469 17.2083 21.2502 17.1464C21.255 17.055 21.2804 16.9661 21.3244 16.8866C21.3543 16.8326 21.4107 16.7646 21.9062 16.3296L22.3072 15.9776C23.3377 15.0729 24.1617 14.3494 24.744 13.7367C25.3192 13.1314 25.8044 12.4907 25.9415 11.7285C26.138 10.6361 25.8338 9.51154 25.1168 8.68014C24.6166 8.10011 23.8793 7.80871 23.0826 7.59542C22.2761 7.37951 21.207 7.19701 19.87 6.96878L19.0595 6.83043C18.5691 6.7467 18.5069 6.72733 18.4632 6.70624C18.3996 6.67555 18.3421 6.63312 18.2934 6.58108C18.2599 6.54531 18.2221 6.49105 17.9876 6.04055L17.4219 4.95413C16.8567 3.86875 16.4011 2.99361 15.9871 2.34812C15.5729 1.70213 15.1096 1.13446 14.4689 0.831065Z" fill="#FFE600"/>
<path d="M11.5311 0.831065L10.2472 -1.88029L10.2472 -1.88029L11.5311 0.831065ZM14.4689 0.831065L15.7528 -1.88029L15.7528 -1.88029L14.4689 0.831065ZM10.0129 2.34812L7.48751 0.728667L7.48751 0.72867L10.0129 2.34812ZM8.57808 4.95423L11.239 6.33973L11.239 6.33969L8.57808 4.95423ZM8.01244 6.04055L10.6733 7.42605L10.6733 7.42605L8.01244 6.04055ZM7.70662 6.58108L5.51595 4.53145L5.51594 4.53145L7.70662 6.58108ZM7.53676 6.70624L6.23277 4.00446L6.23271 4.00449L7.53676 6.70624ZM6.94048 6.83043L7.44532 9.78764L7.44532 9.78764L6.94048 6.83043ZM6.1301 6.96877L6.63492 9.92599L6.63494 9.92599L6.1301 6.96877ZM2.91745 7.59542L2.14164 4.69747L2.14164 4.69747L2.91745 7.59542ZM0.883226 8.68014L3.1551 10.6394L3.1551 10.6394L0.883226 8.68014ZM0.0585274 11.7285L-2.89408 12.2597V12.2597L0.0585274 11.7285ZM1.25602 13.7367L3.43065 11.67L1.25602 13.7367ZM3.69285 15.9776L5.67214 13.7232L5.67212 13.7232L3.69285 15.9776ZM4.0938 16.3296L6.07309 14.0752L6.07309 14.0752L4.0938 16.3296ZM4.67557 16.8866L2.05079 18.3393L2.0508 18.3393L4.67557 16.8866ZM4.74984 17.1464L7.74566 16.9881L7.74566 16.988L4.74984 17.1464ZM4.5536 17.9382L1.67455 17.095L1.67455 17.095L4.5536 17.9382ZM4.53914 17.9876L7.41819 18.8309L7.41819 18.8308L4.53914 17.9876ZM3.51076 21.796L0.570727 21.1991L3.51076 21.796ZM3.57231 24.4164L0.833001 25.6396L0.833002 25.6396L3.57231 24.4164ZM6.14939 26.4637L5.61139 29.4151L5.61139 29.4151L6.14939 26.4637ZM8.63246 25.8647L9.99468 28.5376L9.99469 28.5376L8.63246 25.8647ZM11.9594 23.8825L10.3677 21.3396L10.3677 21.3396L11.9594 23.8825ZM12.2232 23.7174L13.8149 26.2603L12.2232 23.7174ZM12.8753 23.3461L13.5437 26.2707L13.5438 26.2706L12.8753 23.3461ZM13.1247 23.3461L12.4562 26.2706L12.4563 26.2707L13.1247 23.3461ZM13.7768 23.7174L15.3686 21.1745L15.3685 21.1745L13.7768 23.7174ZM14.0406 23.8825L12.4488 26.4254H12.4488L14.0406 23.8825ZM17.3675 25.8647L16.0053 28.5376L16.0053 28.5376L17.3675 25.8647ZM19.8506 26.4637L20.3886 29.4151L20.3886 29.4151L19.8506 26.4637ZM22.4277 24.4164L25.167 25.6396L25.167 25.6396L22.4277 24.4164ZM22.4892 21.796L25.4293 21.1991L25.4293 21.1991L22.4892 21.796ZM21.4608 17.9875L18.5818 18.8307L18.5818 18.8307L21.4608 17.9875ZM21.4464 17.9382L18.5673 18.7815L18.5673 18.7815L21.4464 17.9382ZM21.2502 17.1464L24.246 17.3048L24.246 17.3047L21.2502 17.1464ZM21.3244 16.8866L18.6996 15.4338L18.6996 15.4338L21.3244 16.8866ZM21.9062 16.3296L19.9269 14.0752L19.9269 14.0752L21.9062 16.3296ZM22.3072 15.9776L20.3279 13.7232L20.3279 13.7232L22.3072 15.9776ZM24.744 13.7367L22.5694 11.67L22.5694 11.67L24.744 13.7367ZM25.9415 11.7285L22.9889 11.1974L22.9889 11.1974L25.9415 11.7285ZM25.1168 8.68014L27.3887 6.72091L25.1168 8.68014ZM23.0826 7.59542L23.8584 4.69747L23.8584 4.69747L23.0826 7.59542ZM19.87 6.96878L19.3651 9.926L19.3651 9.926L19.87 6.96878ZM19.0595 6.83043L18.5547 9.78764L18.5547 9.78764L19.0595 6.83043ZM18.4632 6.70624L19.7673 4.00447L19.7672 4.00446L18.4632 6.70624ZM18.2934 6.58108L16.1027 8.63064L16.1027 8.63073L18.2934 6.58108ZM17.9876 6.04055L15.3267 7.42605L15.3267 7.42605L17.9876 6.04055ZM17.4219 4.95413L14.761 6.3396L14.761 6.33963L17.4219 4.95413ZM15.9871 2.34812L13.4618 3.96758L13.4618 3.96758L15.9871 2.34812ZM12.8151 3.54242C12.9345 3.48586 13.0655 3.48586 13.1849 3.54242L15.7528 -1.88029C14.008 -2.70657 11.992 -2.70657 10.2472 -1.88029L12.8151 3.54242ZM12.5382 3.96758C12.6939 3.72481 12.7968 3.59602 12.8615 3.52796C12.9181 3.46841 12.903 3.5008 12.8151 3.54242L10.2472 -1.88029C8.81536 -1.20226 7.97347 -0.0291213 7.48751 0.728667L12.5382 3.96758ZM11.239 6.33969C11.8293 5.20597 12.2144 4.47253 12.5382 3.96758L7.48751 0.72867C6.98343 1.51473 6.45716 2.53164 5.91716 3.56876L11.239 6.33969ZM9.89729 8.6307C10.1439 8.36712 10.2954 8.11657 10.3818 7.96705C10.4611 7.82968 10.5563 7.65091 10.6733 7.42605L5.35154 4.65505C5.29618 4.76139 5.25622 4.83702 5.22739 4.8907C5.1974 4.94657 5.186 4.96641 5.18645 4.96562C5.18728 4.96419 5.19464 4.95146 5.20724 4.93115C5.2198 4.91092 5.24158 4.87667 5.27145 4.83366C5.3026 4.78881 5.34204 4.73513 5.38993 4.6761C5.43943 4.61508 5.4837 4.56592 5.51595 4.53145L9.89729 8.6307ZM8.84074 9.40802C9.24078 9.21494 9.59822 8.95036 9.89729 8.6307L5.51594 4.53145C5.71763 4.31589 5.95992 4.13615 6.23277 4.00446L8.84074 9.40802ZM7.44532 9.78764C7.69017 9.74584 7.88898 9.71005 8.04525 9.67598C8.21745 9.63843 8.50834 9.56846 8.84081 9.40799L6.23271 4.00449C6.2761 3.98354 6.33781 3.95521 6.41293 3.92542C6.48573 3.89656 6.55094 3.87432 6.60531 3.85745C6.65747 3.84127 6.69865 3.83036 6.72342 3.8241C6.74826 3.81782 6.76414 3.81434 6.76705 3.81371C6.77043 3.81297 6.7505 3.81732 6.69032 3.82842C6.63264 3.83905 6.55096 3.85352 6.43564 3.87321L7.44532 9.78764ZM3.69325 10.4934C4.33404 10.3218 5.24165 10.1638 6.63492 9.92599L5.62528 4.01155C4.3445 4.23019 3.11389 4.43719 2.14164 4.69747L3.69325 10.4934ZM3.1551 10.6394C3.08459 10.7211 3.04277 10.7273 3.1233 10.6873C3.21661 10.6409 3.38588 10.5757 3.69326 10.4934L2.14164 4.69747C1.22994 4.94154 -0.267598 5.42096 -1.38865 6.72091L3.1551 10.6394ZM3.01113 11.1974C2.97271 10.9838 3.03642 10.777 3.1551 10.6394L-1.38865 6.72091C-2.70395 8.2461 -3.24871 10.2884 -2.89408 12.2597L3.01113 11.1974ZM3.43065 11.67C3.20647 11.4341 3.08819 11.2819 3.02525 11.1828C2.9693 11.0947 2.99487 11.107 3.01113 11.1974L-2.89408 12.2597C-2.59323 13.932 -1.57403 15.1136 -0.918609 15.8033L3.43065 11.67ZM5.67212 13.7232C4.59984 12.7817 3.89755 12.1613 3.43065 11.67L-0.91861 15.8033C-0.22086 16.5375 0.72485 17.364 1.71357 18.232L5.67212 13.7232ZM7.30035 15.4338C7.07398 15.0248 6.80665 14.7529 6.65827 14.6075C6.51413 14.4664 6.32098 14.2928 6.07309 14.0752L2.11451 18.584C2.23161 18.6868 2.31513 18.7613 2.3745 18.8151C2.40387 18.8417 2.42516 18.8613 2.44009 18.8753C2.45526 18.8895 2.46115 18.8952 2.46035 18.8944C2.45992 18.894 2.44776 18.8821 2.42812 18.8613C2.40863 18.8407 2.37487 18.804 2.33345 18.7541C2.29035 18.7022 2.23865 18.6356 2.18385 18.5553C2.12684 18.4717 2.08267 18.3969 2.05079 18.3393L7.30035 15.4338ZM7.74566 16.988C7.717 16.4457 7.56601 15.9138 7.30034 15.4338L2.0508 18.3393C1.87316 18.0184 1.77303 17.6643 1.75402 17.3047L7.74566 16.988ZM7.43266 18.7815C7.52661 18.4607 7.59691 18.21 7.64307 18.0145C7.69024 17.8148 7.76995 17.4476 7.74566 16.9881L1.75402 17.3047C1.7506 17.2399 1.74846 17.1546 1.75231 17.0555C1.75601 16.9603 1.76421 16.8783 1.77279 16.8134C1.78103 16.7509 1.78973 16.7035 1.79492 16.6771C1.79765 16.6632 1.79988 16.6527 1.80132 16.6461C1.80276 16.6395 1.80363 16.6358 1.8037 16.6355C1.80371 16.6355 1.80157 16.6445 1.79609 16.6655C1.79069 16.6862 1.78296 16.7151 1.77215 16.7543C1.75031 16.8334 1.71904 16.9431 1.67455 17.095L7.43266 18.7815ZM7.41819 18.8308L7.43266 18.7814L1.67455 17.095L1.66008 17.1444L7.41819 18.8308ZM6.45079 22.3928C6.61608 21.5786 6.93849 20.4687 7.41819 18.8309L1.66009 17.1444C1.21077 18.6784 0.798646 20.0764 0.570727 21.1991L6.45079 22.3928ZM6.31162 23.1933C6.36482 23.3124 6.34058 23.3465 6.3418 23.1949C6.34311 23.0328 6.37119 22.7849 6.45079 22.3928L0.570727 21.1991C0.372306 22.1766 0.0717782 23.9349 0.833001 25.6396L6.31162 23.1933ZM6.6874 23.5123C6.55305 23.4879 6.39889 23.3887 6.31162 23.1932L0.833002 25.6396C1.70626 27.5953 3.47817 29.0262 5.61139 29.4151L6.6874 23.5123ZM7.27024 23.1918C6.92477 23.3679 6.7124 23.4512 6.58054 23.4876C6.4611 23.5207 6.52277 23.4823 6.6874 23.5123L5.61139 29.4151C7.4858 29.7568 9.12636 28.9801 9.99468 28.5376L7.27024 23.1918ZM10.3677 21.3396C8.94349 22.2311 7.98686 22.8266 7.27023 23.1918L9.99469 28.5376C11.0029 28.0238 12.2227 27.257 13.5512 26.4254L10.3677 21.3396ZM12.2069 20.4215C11.7662 20.5222 11.4413 20.6949 11.268 20.791C11.1009 20.8838 10.8921 21.0113 10.6315 21.1745L13.8149 26.2603C13.938 26.1832 14.0263 26.1288 14.0897 26.0905C14.1555 26.0507 14.1801 26.0369 14.1797 26.0372C14.1782 26.038 14.1629 26.0465 14.1373 26.0594C14.1119 26.0723 14.0677 26.094 14.0091 26.1192C13.9482 26.1454 13.8714 26.1756 13.781 26.205C13.6871 26.2356 13.6053 26.2566 13.5437 26.2707L12.2069 20.4215ZM13.7931 20.4215C13.2711 20.3022 12.7289 20.3022 12.2069 20.4215L13.5438 26.2706C13.1859 26.3524 12.8141 26.3524 12.4562 26.2706L13.7931 20.4215ZM15.3685 21.1745C15.1079 21.0113 14.8991 20.8838 14.732 20.791C14.5587 20.6949 14.2338 20.5222 13.7931 20.4215L12.4563 26.2707C12.3947 26.2566 12.3129 26.2356 12.219 26.205C12.1286 26.1756 12.0518 26.1454 11.9909 26.1192C11.9323 26.094 11.888 26.0723 11.8627 26.0594C11.8371 26.0465 11.8218 26.038 11.8203 26.0372C11.8199 26.0369 11.8445 26.0507 11.9103 26.0905C11.9737 26.1288 12.062 26.1832 12.1851 26.2603L15.3685 21.1745ZM18.7298 23.1918C18.0132 22.8266 17.0565 22.231 15.6323 21.3396L12.4488 26.4254C13.7773 27.2569 14.9971 28.0238 16.0053 28.5376L18.7298 23.1918ZM19.3126 23.5123C19.4772 23.4823 19.5389 23.5207 19.4195 23.4876C19.2876 23.4512 19.0752 23.3679 18.7298 23.1918L16.0053 28.5376C16.8736 28.9801 18.5142 29.7568 20.3886 29.4151L19.3126 23.5123ZM19.6884 23.1932C19.6011 23.3887 19.4469 23.4879 19.3126 23.5123L20.3886 29.4151C22.5218 29.0262 24.2937 27.5953 25.167 25.6396L19.6884 23.1932ZM19.5492 22.3928C19.6288 22.7849 19.6569 23.0328 19.6582 23.1949C19.6594 23.3465 19.6352 23.3124 19.6884 23.1933L25.167 25.6396C25.9282 23.9349 25.6277 22.1766 25.4293 21.1991L19.5492 22.3928ZM18.5818 18.8307C19.0615 20.4686 19.3839 21.5785 19.5492 22.3928L25.4293 21.1991C25.2013 20.0763 24.7892 18.6784 24.3399 17.1442L18.5818 18.8307ZM18.5673 18.7815L18.5818 18.8307L24.3399 17.1442L24.3255 17.095L18.5673 18.7815ZM18.2543 16.988C18.23 17.4476 18.3098 17.8148 18.3569 18.0146C18.4031 18.21 18.4734 18.4607 18.5673 18.7815L24.3255 17.095C24.281 16.9431 24.2497 16.8334 24.2279 16.7543C24.217 16.7151 24.2093 16.6862 24.2039 16.6655C24.1984 16.6445 24.1963 16.6355 24.1963 16.6355C24.1964 16.6358 24.1972 16.6395 24.1987 16.6461C24.2001 16.6527 24.2024 16.6632 24.2051 16.6771C24.2103 16.7035 24.219 16.7509 24.2272 16.8134C24.2358 16.8784 24.244 16.9603 24.2477 17.0555C24.2515 17.1546 24.2494 17.2399 24.246 17.3048L18.2543 16.988ZM18.6996 15.4338C18.434 15.9138 18.283 16.4457 18.2543 16.9881L24.246 17.3047C24.227 17.6644 24.1268 18.0184 23.9492 18.3393L18.6996 15.4338ZM19.9269 14.0752C19.679 14.2928 19.4859 14.4664 19.3417 14.6075C19.1934 14.7528 18.926 15.0248 18.6996 15.4338L23.9492 18.3393C23.9173 18.3969 23.8732 18.4717 23.8161 18.5553C23.7613 18.6357 23.7096 18.7022 23.6665 18.7541C23.6251 18.804 23.5914 18.8407 23.5719 18.8614C23.5522 18.8821 23.5401 18.894 23.5396 18.8944C23.5388 18.8952 23.5447 18.8895 23.5599 18.8753C23.5748 18.8613 23.5961 18.8417 23.6255 18.8151C23.6849 18.7613 23.7684 18.6868 23.8855 18.584L19.9269 14.0752ZM22.5694 11.67C22.1025 12.1613 21.4002 12.7817 20.3279 13.7232L24.2864 18.232C25.2751 17.364 26.2209 16.5375 26.9186 15.8033L22.5694 11.67ZM22.9889 11.1974C23.0051 11.107 23.0307 11.0947 22.9748 11.1828C22.9118 11.2819 22.7935 11.4341 22.5694 11.67L26.9186 15.8033C27.574 15.1136 28.5932 13.932 28.8941 12.2597L22.9889 11.1974ZM22.8449 10.6394C22.9636 10.777 23.0273 10.9838 22.9889 11.1974L28.8941 12.2597C29.2487 10.2884 28.704 8.2461 27.3887 6.72091L22.8449 10.6394ZM22.3067 10.4934C22.6141 10.5757 22.7834 10.6409 22.8767 10.6873C22.9572 10.7273 22.9154 10.7211 22.8449 10.6394L27.3887 6.72091C26.2676 5.42096 24.7701 4.94154 23.8584 4.69747L22.3067 10.4934ZM19.3651 9.926C20.7584 10.1638 21.666 10.3218 22.3067 10.4934L23.8584 4.69747C22.8861 4.4372 21.6555 4.23019 20.3748 4.01156L19.3651 9.926ZM17.1592 9.408C17.4917 9.56846 17.7825 9.63843 17.9548 9.67598C18.111 9.71005 18.3098 9.74584 18.5547 9.78764L19.5644 3.87321C19.449 3.85352 19.3674 3.83905 19.3097 3.82842C19.2495 3.81732 19.2296 3.81297 19.233 3.81371C19.2359 3.81434 19.2517 3.81782 19.2766 3.8241C19.3013 3.83036 19.3425 3.84127 19.3947 3.85745C19.4491 3.87432 19.5143 3.89655 19.5871 3.92542C19.6622 3.9552 19.7239 3.98353 19.7673 4.00447L17.1592 9.408ZM16.1027 8.63073C16.4018 8.95035 16.7592 9.21494 17.1593 9.40802L19.7672 4.00446C20.0401 4.13615 20.2824 4.31589 20.484 4.53143L16.1027 8.63073ZM15.3267 7.42605C15.4437 7.65091 15.5389 7.82968 15.6182 7.96704C15.7046 8.11655 15.8561 8.36708 16.1027 8.63064L20.4841 4.53151C20.5163 4.56597 20.5606 4.61513 20.6101 4.67614C20.658 4.73517 20.6974 4.78884 20.7286 4.83369C20.7584 4.8767 20.7802 4.91094 20.7928 4.93117C20.8054 4.95148 20.8127 4.9642 20.8136 4.96563C20.814 4.96641 20.8026 4.94657 20.7726 4.89071C20.7438 4.83702 20.7038 4.76139 20.6485 4.65505L15.3267 7.42605ZM13.4618 3.96758C13.7856 4.47252 14.1707 5.20592 14.761 6.3396L20.0828 3.56867C19.5428 2.53159 19.0166 1.51471 18.5125 0.728665L13.4618 3.96758ZM13.1849 3.54242C13.097 3.5008 13.0819 3.46841 13.1385 3.52796C13.2032 3.59602 13.3061 3.72481 13.4618 3.96758L18.5125 0.728668C18.0265 -0.0291201 17.1846 -1.20226 15.7528 -1.88029L13.1849 3.54242ZM10.6733 7.42605L11.239 6.33973L5.91717 3.56873L5.35154 4.65506L10.6733 7.42605ZM6.63494 9.92599L7.44532 9.78764L6.43564 3.87321L5.62526 4.01155L6.63494 9.92599ZM6.07309 14.0752L5.67214 13.7232L1.71356 18.232L2.11451 18.584L6.07309 14.0752ZM10.6315 21.1745L10.3677 21.3396L13.5511 26.4254L13.8149 26.2603L10.6315 21.1745ZM15.6323 21.3396L15.3686 21.1745L12.1851 26.2603L12.4488 26.4254L15.6323 21.3396ZM20.3279 13.7232L19.9269 14.0752L23.8855 18.584L24.2864 18.232L20.3279 13.7232ZM18.5547 9.78764L19.3651 9.926L20.3748 4.01156L19.5644 3.87321L18.5547 9.78764ZM14.761 6.33963L15.3267 7.42605L20.6485 4.65506L20.0828 3.56864L14.761 6.33963Z" fill="#FFE600" mask="url(#path-1-inside-1_370_2931)"/>
</svg>
