<svg width="80" height="80" viewBox="0 0 80 80" fill="none" xmlns="http://www.w3.org/2000/svg">
<path d="M80 40C80 62.0914 62.0914 80 40 80C17.9086 80 0 62.0914 0 40C0 17.9086 17.9086 0 40 0C62.0914 0 80 17.9086 80 40Z" fill="url(#paint0_linear_163_967)"/>
<path fill-rule="evenodd" clip-rule="evenodd" d="M5.33333 39.5556C5.33333 20.1642 20.8541 4.44445 40 4.44445C59.1459 4.44445 74.6667 20.1642 74.6667 39.5556C74.6667 49.0336 70.9555 57.6387 64.9299 63.9534C58.6293 70.5562 49.7865 74.6667 40 74.6667C30.2135 74.6667 21.3707 70.5562 15.0701 63.9534C9.04447 57.6387 5.33333 49.0336 5.33333 39.5556ZM40 9.34367C23.5257 9.34367 10.1705 22.87 10.1705 39.5556C10.1705 46.0836 12.2127 52.1253 15.688 57.0654C19.3791 51.5831 24.7225 47.4662 30.6531 45.3154C27.0216 42.4785 24.6822 38.0276 24.6822 33.0233C24.6822 24.455 31.5402 17.509 40 17.509C48.4598 17.509 55.3178 24.455 55.3178 33.0233C55.3178 38.0275 52.9785 42.4784 49.347 45.3153C55.2777 47.4661 60.621 51.5829 64.3121 57.0652C67.7873 52.1251 69.8295 46.0835 69.8295 39.5556C69.8295 22.87 56.4744 9.34367 40 9.34367ZM61.0428 60.9689C56.4555 53.312 48.1687 48.5375 40.0002 48.5375C31.8316 48.5375 23.5447 53.3121 18.9574 60.9691C24.3541 66.4094 31.7878 69.7674 40 69.7674C48.2123 69.7674 55.6461 66.4094 61.0428 60.9689ZM40 22.4083C34.2117 22.4083 29.5194 27.1608 29.5194 33.0233C29.5194 38.8858 34.2117 43.6382 40 43.6382C45.7883 43.6382 50.4806 38.8858 50.4806 33.0233C50.4806 27.1608 45.7883 22.4083 40 22.4083Z" fill="white"/>
<defs>
<linearGradient id="paint0_linear_163_967" x1="-1.19209e-06" y1="80" x2="89.7967" y2="13.1617" gradientUnits="userSpaceOnUse">
<stop stop-color="#955EB2"/>
<stop offset="1" stop-color="#DFBAEF"/>
</linearGradient>
</defs>
</svg>
