<svg width="34" height="33" viewBox="0 0 34 33" fill="none" xmlns="http://www.w3.org/2000/svg">
<path d="M0 10H28V24C28 26.2091 26.2091 28 24 28H4C1.79086 28 0 26.2091 0 24V10Z" fill="url(#paint0_linear_448_2875)"/>
<path fill-rule="evenodd" clip-rule="evenodd" d="M6 2C6 0.895431 6.89543 0 8 0C9.10457 0 10 0.895431 10 2V3H18V2C18 0.895431 18.8954 0 20 0C21.1046 0 22 0.895431 22 2V3H25C26.6569 3 28 4.34315 28 6V9H0V6C0 4.34315 1.34315 3 3 3H6V2Z" fill="url(#paint1_linear_448_2875)"/>
<rect x="5" y="15" width="2" height="2" rx="1" fill="white"/>
<rect x="9" y="15" width="14" height="2" rx="1" fill="white"/>
<rect x="9" y="20" width="14" height="2" rx="1" fill="white"/>
<rect x="5" y="20" width="2" height="2" rx="1" fill="white"/>
<path d="M34 23C34 28.5228 29.5228 33 24 33C18.4772 33 14 28.5228 14 23C14 17.4772 18.4772 13 24 13C29.5228 13 34 17.4772 34 23Z" fill="url(#paint2_linear_448_2875)"/>
<path fill-rule="evenodd" clip-rule="evenodd" d="M24 31C28.4183 31 32 27.4183 32 23C32 18.5817 28.4183 15 24 15C19.5817 15 16 18.5817 16 23C16 27.4183 19.5817 31 24 31ZM24 33C29.5228 33 34 28.5228 34 23C34 17.4772 29.5228 13 24 13C18.4772 13 14 17.4772 14 23C14 28.5228 18.4772 33 24 33Z" fill="white"/>
<path d="M24 18V23.8L28 26" stroke="white" stroke-width="2" stroke-linecap="round" stroke-linejoin="round"/>
<defs>
<linearGradient id="paint0_linear_448_2875" x1="-4.17233e-07" y1="28" x2="20.8669" y2="3.83934" gradientUnits="userSpaceOnUse">
<stop stop-color="#955EB2"/>
<stop offset="1" stop-color="#DFBAEF"/>
</linearGradient>
<linearGradient id="paint1_linear_448_2875" x1="-4.17233e-07" y1="9" x2="7.67651" y2="-8.77643" gradientUnits="userSpaceOnUse">
<stop stop-color="#955EB2"/>
<stop offset="1" stop-color="#DFBAEF"/>
</linearGradient>
<linearGradient id="paint2_linear_448_2875" x1="14" y1="33" x2="36.4492" y2="16.2904" gradientUnits="userSpaceOnUse">
<stop stop-color="#955EB2"/>
<stop offset="1" stop-color="#DFBAEF"/>
</linearGradient>
</defs>
</svg>
