<svg width="28" height="28" viewBox="0 0 28 28" fill="none" xmlns="http://www.w3.org/2000/svg">
<path fill-rule="evenodd" clip-rule="evenodd" d="M6 0C2.68629 0 0 2.68629 0 6V22C0 25.3137 2.68629 28 6 28H22C25.3137 28 28 25.3137 28 22V6C28 2.68629 25.3137 0 22 0H6ZM24.9147 9.69695C25.2997 9.19175 25.2022 8.47017 24.6969 8.08525C24.1917 7.70034 23.4702 7.79785 23.0853 8.30305L16.2159 17.319L9.99986 11.8227C9.54378 11.4194 8.85244 11.4415 8.42298 11.873L3.18489 17.1361C2.73686 17.5863 2.7386 18.3144 3.18877 18.7625C3.63894 19.2105 4.36708 19.2088 4.81511 18.7586L9.28847 14.2638L15.6192 19.8615C15.8586 20.0732 16.1753 20.1757 16.4933 20.1445C16.8113 20.1133 17.102 19.9511 17.2957 19.6969L24.9147 9.69695Z" fill="#525252"/>
</svg>
