<svg width="28" height="28" viewBox="0 0 28 28" fill="none" xmlns="http://www.w3.org/2000/svg">
<path fill-rule="evenodd" clip-rule="evenodd" d="M0 6C0 2.68629 2.68629 0 6 0H22C25.3137 0 28 2.68629 28 6V22C28 25.3137 25.3137 28 22 28H6C2.68629 28 0 25.3137 0 22V6ZM5.38472 4.14626C6.0687 4.14626 6.62318 4.70074 6.62318 5.38472V21.377H22.6155C23.2995 21.377 23.854 21.9315 23.854 22.6155C23.854 23.2995 23.2995 23.854 22.6155 23.854H5.38472C4.70074 23.854 4.14626 23.2995 4.14626 22.6155V5.38472C4.14626 4.70074 4.70074 4.14626 5.38472 4.14626ZM10.5224 9.92172C10.6477 9.39013 10.9097 8.59122 11.3167 7.98326C11.7263 7.37146 12.0921 7.20284 12.4547 7.24521C12.8189 7.28775 13.2355 7.56541 13.6727 8.59083C14.1012 9.59602 14.3855 10.9465 14.6874 12.4547L14.7302 12.6691C15.0057 14.0486 15.306 15.5527 15.7781 16.7471C16.2563 17.957 17.1029 19.3345 18.7453 19.5264C20.5565 19.738 21.791 18.8303 22.5192 17.7454C23.2072 16.7202 23.4922 15.494 23.5849 14.7005C23.6608 14.0507 23.1956 13.4623 22.5458 13.3864C21.896 13.3105 21.3076 13.7757 21.2317 14.4256C21.1631 15.0128 20.9526 15.828 20.5519 16.425C20.1914 16.9623 19.7437 17.2577 19.0203 17.1731C18.7749 17.1445 18.4003 16.936 17.9815 15.8762C17.5899 14.8856 17.3265 13.5691 17.0308 12.0911L17.0105 11.9897C16.7208 10.5422 16.3949 8.93487 15.8521 7.66166C15.3179 6.40868 14.402 5.08737 12.7297 4.89199C11.0821 4.6995 9.97697 5.72563 9.34793 6.66524C8.71632 7.6087 8.37201 8.71785 8.21636 9.37803C8.06622 10.0148 8.46073 10.6527 9.09751 10.8029C9.7343 10.953 10.3722 10.5585 10.5224 9.92172Z" fill="url(#paint0_linear_388_1987)"/>
<defs>
<linearGradient id="paint0_linear_388_1987" x1="-4.17233e-07" y1="28" x2="31.4288" y2="4.6066" gradientUnits="userSpaceOnUse">
<stop stop-color="#955EB2"/>
<stop offset="1" stop-color="#DFBAEF"/>
</linearGradient>
</defs>
</svg>
