<svg width="81" height="81" viewBox="0 0 81 81" fill="none" xmlns="http://www.w3.org/2000/svg">
<path fill-rule="evenodd" clip-rule="evenodd" d="M5.91959 40.0009C5.91959 21.1778 21.1788 5.91861 40.0019 5.91861H51.1144C52.7488 5.91861 54.0737 4.59368 54.0737 2.95931C54.0737 1.32493 52.7488 0 51.1144 0H40.0019C17.91 0 0.000976562 17.909 0.000976562 40.0009C0.000976562 62.0928 17.91 80.0018 40.0019 80.0018C62.0938 80.0018 80.0028 62.0928 80.0028 40.0009V38.1488C80.0028 36.5145 78.6779 35.1895 77.0435 35.1895C75.4091 35.1895 74.0842 36.5145 74.0842 38.1488V40.0009C74.0842 58.8241 58.825 74.0832 40.0019 74.0832C21.1788 74.0832 5.91959 58.8241 5.91959 40.0009ZM75.4315 19.8685C76.5871 18.7129 76.5871 16.8391 75.4315 15.6834C74.2758 14.5278 72.4021 14.5278 71.2464 15.6834L39.8666 47.0632L27.1335 35.9218C25.9035 34.8455 24.034 34.9702 22.9577 36.2002C21.8815 37.4302 22.0061 39.2997 23.2361 40.376L38.0528 53.3406C39.2252 54.3665 40.9924 54.3076 42.094 53.206L75.4315 19.8685Z" fill="#52C93F"/>
</svg>
