<svg width="28" height="28" viewBox="0 0 28 28" fill="none" xmlns="http://www.w3.org/2000/svg">
<path fill-rule="evenodd" clip-rule="evenodd" d="M0 6C0 2.68629 2.68629 0 6 0H22C25.3137 0 28 2.68629 28 6V22C28 25.3137 25.3137 28 22 28H6C2.68629 28 0 25.3137 0 22V6ZM5.31967 4C6.04851 4 6.63934 4.5627 6.63934 5.25683V21.4863H23.6803C24.4092 21.4863 25 22.049 25 22.7432C25 23.4373 24.4092 24 23.6803 24H5.31967C4.59084 24 4 23.4373 4 22.7432V5.25683C4 4.5627 4.59084 4 5.31967 4ZM10.5 7C9.67157 7 9 7.67157 9 8.5V20H12V8.5C12 7.67157 11.3284 7 10.5 7ZM14 6.5C14 5.67157 14.6716 5 15.5 5C16.3284 5 17 5.67157 17 6.5V20H14V6.5ZM20.5 10C19.6716 10 19 10.6716 19 11.5V20H22V11.5C22 10.6716 21.3284 10 20.5 10Z" fill="url(#paint0_linear_540_4177)"/>
<defs>
<linearGradient id="paint0_linear_540_4177" x1="-4.17233e-07" y1="28" x2="31.4288" y2="4.6066" gradientUnits="userSpaceOnUse">
<stop stop-color="#955EB2"/>
<stop offset="1" stop-color="#DFBAEF"/>
</linearGradient>
</defs>
</svg>
