<svg width="26" height="32" viewBox="0 0 26 32" fill="none" xmlns="http://www.w3.org/2000/svg">
<path fill-rule="evenodd" clip-rule="evenodd" d="M12.1718 1.54135e-05C13.4924 -0.000213912 14.3434 -0.000361711 15.1573 0.19537C15.8773 0.368556 16.5657 0.654204 17.1972 1.04183C17.9108 1.47992 18.5125 2.08289 19.4461 3.01852L21.2165 4.79209C21.2366 4.81229 21.256 4.83327 21.2746 4.85496L23.5233 7.4831C24.2937 8.38323 24.7903 8.96352 25.1494 9.62824C25.4673 10.2167 25.7002 10.8474 25.8411 11.5014C26.0003 12.2402 26.0002 13.0045 26 14.1902L26 21.4073C26 23.0328 26 24.321 25.9153 25.3593C25.8287 26.4211 25.648 27.3195 25.2308 28.1398C24.5542 29.4701 23.4746 30.5516 22.1467 31.2294C21.3278 31.6474 20.431 31.8284 19.3711 31.9152C18.3347 32 17.0488 32 15.4262 32H10.5738C8.95119 32 7.66532 32 6.62886 31.9152C5.56896 31.8284 4.67215 31.6474 3.85326 31.2294C2.52538 30.5516 1.44577 29.4701 0.769182 28.1398C0.351938 27.3195 0.171265 26.4211 0.0846685 25.3593C-1.40965e-05 24.321 -8.33179e-06 23.0328 1.69533e-07 21.4073V10.5928C-8.33179e-06 8.96725 -1.40965e-05 7.67906 0.0846685 6.64074C0.171265 5.57896 0.351938 4.68054 0.769182 3.86019C1.44577 2.52993 2.52538 1.44839 3.85326 0.770589C4.67215 0.352599 5.56896 0.171602 6.62886 0.0848501C7.66532 1.60336e-05 8.95121 2.27768e-05 10.5738 3.12933e-05L12.1718 1.54135e-05ZM13.3714 2.24133C13.024 2.23358 12.5931 2.23259 12.0328 2.23259H10.6228C8.94031 2.23259 7.74541 2.23346 6.81033 2.30999C5.88826 2.38546 5.31737 2.52891 4.86501 2.75981C3.95646 3.22357 3.21778 3.96357 2.75485 4.87375C2.52436 5.32691 2.38117 5.89882 2.30584 6.82255C2.22944 7.7593 2.22857 8.95633 2.22857 10.6419V21.3582C2.22857 23.0437 2.22944 24.2407 2.30584 25.1775C2.38117 26.1012 2.52436 26.6731 2.75485 27.1263C3.21778 28.0365 3.95646 28.7765 4.86501 29.2402C5.31737 29.4711 5.88826 29.6146 6.81033 29.69C7.74541 29.7666 8.94031 29.7674 10.6228 29.7674H15.3771C17.0597 29.7674 18.2546 29.7666 19.1896 29.69C20.1117 29.6146 20.6826 29.4711 21.135 29.2402C22.0435 28.7765 22.7822 28.0365 23.2451 27.1263C23.4756 26.6731 23.6188 26.1012 23.6941 25.1775C23.7705 24.2407 23.7714 23.0437 23.7714 21.3582V14.3145C23.7714 13.5297 23.7695 13.0277 23.7477 12.6512H19.1948C18.4012 12.6512 17.7388 12.6512 17.1976 12.6069C16.6332 12.5607 16.1033 12.4608 15.6023 12.2051C14.8335 11.8127 14.2084 11.1865 13.8167 10.4164C13.5614 9.91438 13.4617 9.38355 13.4156 8.81814C13.3714 8.27602 13.3714 7.61244 13.3714 6.81742V2.24133ZM15.6 2.70928V6.77212C15.6 7.6241 15.6009 8.19596 15.6368 8.63634C15.6716 9.06368 15.7338 9.26801 15.8024 9.4028C15.9805 9.75286 16.2646 10.0375 16.614 10.2158C16.7486 10.2845 16.9525 10.3469 17.3791 10.3818C17.8187 10.4178 18.3895 10.4186 19.24 10.4186H23.0262C22.795 10.068 22.4441 9.6524 21.7505 8.84176L19.6104 6.34043L17.9685 4.69561C16.9032 3.62838 16.4939 3.22848 16.0327 2.9454C15.8924 2.85925 15.748 2.78046 15.6 2.70928Z" fill="white"/>
<path d="M5.98929 27C9.44773 27 15.3057 27 19.9643 27C18.2041 24.6983 15.5694 23.3161 12.9768 23.3161C10.3842 23.3161 7.74945 24.6983 5.98929 27Z" fill="white"/>
<path d="M12.9768 14C10.7891 14 9.01567 15.7727 9.01567 17.9594C9.01567 20.1461 10.7891 21.9187 12.9768 21.9187C15.1644 21.9187 16.9379 20.1461 16.9379 17.9594C16.9379 15.7727 15.1644 14 12.9768 14Z" fill="white"/>
</svg>
