<svg width="70" height="90" viewBox="0 0 70 90" fill="none" xmlns="http://www.w3.org/2000/svg">
<path d="M11.456 0.0106081C13.8964 -0.114521 16.2067 0.88245 18.4869 2.20195C20.7689 3.52247 23.5412 5.48964 26.983 7.93192L58.601 30.3672C61.3115 32.2904 63.5297 33.8643 65.1794 35.2771C66.864 36.7198 68.3078 38.2791 69.1067 40.2999C70.2978 43.3127 70.2978 46.6873 69.1067 49.7001C68.3078 51.7209 66.864 53.2802 65.1794 54.7229C63.5297 56.1357 61.3115 57.7096 58.601 59.6328L26.9831 82.068C23.5413 84.5103 20.7689 86.4776 18.4869 87.7981C16.2067 89.1175 13.8964 90.1145 11.456 89.9894C7.9117 89.8077 4.6251 88.0233 2.47207 85.1119C0.989605 83.1072 0.47674 80.5775 0.238425 77.8906C-7.43717e-05 75.2018 -4.07023e-05 71.7298 1.10262e-06 67.4194V22.5811C-4.07023e-05 18.2706 -7.43717e-05 14.7982 0.238425 12.1094C0.47674 9.42254 0.989605 6.89282 2.47207 4.88813C4.6251 1.9767 7.9117 0.192335 11.456 0.0106081Z" fill="#7C7C7C"/>
</svg>
