<svg width="20" height="12" viewBox="0 0 20 12" fill="none" xmlns="http://www.w3.org/2000/svg">
<path fill-rule="evenodd" clip-rule="evenodd" d="M0.449459 0.0438641C0.809518 -0.0872221 1.21261 0.085426 1.3498 0.429484C2.04178 2.165 3.25848 3.63813 4.806 4.66452C4.81218 4.66847 4.81831 4.67253 4.82438 4.67668C6.30484 5.65357 8.08635 6.22231 10 6.22231C11.9137 6.22231 13.6952 5.65356 15.1756 4.67666C15.1817 4.67252 15.1878 4.66848 15.194 4.66454C16.7415 3.63814 17.9582 2.16501 18.6502 0.429484C18.7874 0.085426 19.1905 -0.0872221 19.5505 0.0438641C19.9106 0.17495 20.0913 0.560131 19.9541 0.904189C19.263 2.63759 18.1104 4.14855 16.6424 5.29038L19.3634 7.89043C19.6359 8.15078 19.6359 8.57288 19.3634 8.83323C19.091 9.09357 18.6492 9.09357 18.3768 8.83323L15.4883 6.07309C14.0728 6.90401 12.4432 7.42373 10.6977 7.53371L10.6977 11.3333C10.6977 11.7015 10.3853 12 10 12C9.61469 12 9.30234 11.7015 9.30234 11.3333V7.53371C7.55677 7.42373 5.92722 6.90401 4.51173 6.07309L1.62322 8.83323C1.35077 9.09357 0.909036 9.09357 0.636582 8.83323C0.364128 8.57288 0.364128 8.15078 0.636582 7.89043L3.35756 5.29038C1.88958 4.14855 0.737046 2.63759 0.0459041 0.904189C-0.0912785 0.560131 0.089399 0.17495 0.449459 0.0438641Z" fill="#7C7C7C"/>
</svg>
