<svg width="20" height="27" viewBox="0 0 20 27" fill="none" xmlns="http://www.w3.org/2000/svg">
<path d="M3.27313 0.99867C3.97039 0.962522 4.63048 1.25054 5.28198 1.63172C5.93398 2.01321 6.72605 2.5815 7.70943 3.28705L16.7431 9.76834C17.5176 10.3239 18.1513 10.7786 18.6227 11.1868C19.104 11.6035 19.5165 12.054 19.7448 12.6378C20.0851 13.5082 20.0851 14.483 19.7448 15.3534C19.5165 15.9372 19.104 16.3877 18.6227 16.8044C18.1513 17.2126 17.5176 17.6673 16.7431 18.2229L7.70944 24.7042C6.72609 25.4097 5.93397 25.978 5.28198 26.3595C4.63048 26.7407 3.97039 27.0287 3.27313 26.9925C2.26049 26.94 1.32146 26.4246 0.706307 25.5835C0.282744 25.0043 0.136211 24.2735 0.0681214 23.4973C-2.12491e-05 22.7206 -1.16292e-05 21.7176 3.15034e-07 20.4723V7.51903C-1.16292e-05 6.27378 -2.12491e-05 5.27063 0.0681214 4.49388C0.136211 3.71767 0.282744 2.98686 0.706307 2.40773C1.32146 1.56665 2.26049 1.05117 3.27313 0.99867Z" fill="#333333"/>
</svg>
