<svg width="16" height="16" viewBox="0 0 16 16" fill="none" xmlns="http://www.w3.org/2000/svg">
<path fill-rule="evenodd" clip-rule="evenodd" d="M0 8C0 3.58172 3.58172 0 8 0C12.4183 0 16 3.58172 16 8C16 12.4183 12.4183 16 8 16C3.58172 16 0 12.4183 0 8ZM8.41553 9.4909L8.98581 4.64352C9.05523 4.05339 8.59415 3.53488 7.99996 3.53488C7.40576 3.53488 6.94468 4.05339 7.01411 4.64352L7.58439 9.49091C7.60918 9.70164 7.78778 9.86045 7.99996 9.86045C8.21214 9.86045 8.39073 9.70163 8.41553 9.4909ZM8.74414 11.7209C8.74414 12.1319 8.41096 12.4651 7.99996 12.4651C7.58895 12.4651 7.25577 12.1319 7.25577 11.7209C7.25577 11.3099 7.58895 10.9767 7.99996 10.9767C8.41096 10.9767 8.74414 11.3099 8.74414 11.7209Z" fill="#E23123"/>
</svg>
