<svg width="24" height="24" viewBox="0 0 24 24" fill="none" xmlns="http://www.w3.org/2000/svg">
<path fill-rule="evenodd" clip-rule="evenodd" d="M10.947 0.0558503C11.344 -0.0186177 11.7513 -0.0186167 12.1482 0.0558528C12.5991 0.140455 13.0164 0.349474 13.547 0.615223C13.5776 0.630515 13.6085 0.645994 13.6398 0.661649L19.4615 3.57252C19.5073 3.59544 19.5526 3.61803 19.5972 3.64031C20.6066 4.14453 21.304 4.49286 21.8267 5.02651C22.2873 5.49683 22.6376 6.06367 22.8523 6.68601C23.0959 7.39215 23.0955 8.17169 23.0951 9.30008C23.0951 9.34994 23.095 9.40049 23.095 9.45175V15.7092C23.095 15.7496 23.095 15.7895 23.095 15.8289C23.0952 17.0906 23.0952 17.8594 22.9642 18.5183C22.4268 21.2197 20.315 23.3315 17.6136 23.8689C16.9547 23.9999 16.1859 23.9999 14.9242 23.9997C14.8848 23.9997 14.8449 23.9997 14.8045 23.9997L14.7997 23.9998C14.7716 24.0002 14.6463 24.0021 14.5258 23.9781C14.0795 23.8893 13.7306 23.5404 13.6418 23.0941C13.6178 22.9736 13.6197 22.8483 13.6201 22.8203L13.6202 22.8154V18.374C13.6202 17.2293 12.6922 16.3014 11.5476 16.3014C10.4029 16.3014 9.47495 17.2293 9.47495 18.374V22.8153L9.475 22.8202C9.47542 22.8483 9.47729 22.9736 9.45333 23.0941C9.36455 23.5404 9.01565 23.8893 8.56931 23.9781C8.44883 24.002 8.32354 24.0002 8.29547 23.9998L8.2906 23.9997C8.25019 23.9997 8.21028 23.9997 8.17085 23.9997C6.90923 23.9998 6.14048 23.9999 5.48161 23.8689C2.7801 23.3315 0.668296 21.2197 0.130938 18.5182C-0.000120741 17.8593 -4.52755e-05 17.0906 7.85449e-05 15.8289C8.24275e-05 15.7895 8.63101e-05 15.7496 8.63101e-05 15.7092L8.11568e-05 9.45176C8.10862e-05 9.40051 6.02613e-05 9.34995 3.97187e-05 9.30008C-0.000424572 8.1717 -0.000745411 7.39216 0.242821 6.68601C0.457481 6.06367 0.807807 5.49683 1.26845 5.02651C1.79112 4.49286 2.48851 4.14453 3.49797 3.64032C3.54259 3.61803 3.58781 3.59544 3.63366 3.57252L9.45546 0.66164C9.48676 0.645986 9.51767 0.630507 9.5482 0.615216C10.0788 0.349468 10.4961 0.14045 10.947 0.0558503ZM11.8206 1.80192C11.6402 1.76807 11.455 1.76807 11.2746 1.80192C11.0996 1.83475 10.9175 1.91687 10.2499 2.25062L4.42814 5.1615C3.22979 5.76068 2.82531 5.97588 2.53764 6.26959C2.26125 6.55178 2.05105 6.89188 1.92226 7.26529C1.7882 7.65394 1.77661 8.11196 1.77662 9.45176L1.77662 15.7092C1.77662 17.1276 1.78092 17.707 1.87334 18.1716C2.27051 20.1684 3.83142 21.7293 5.82818 22.1265C6.22203 22.2048 6.69841 22.2198 7.69841 22.2226V18.374C7.69841 16.2482 9.42174 14.5249 11.5476 14.5249C13.6734 14.5249 15.3967 16.2482 15.3967 18.374V22.2226C16.3967 22.2198 16.8731 22.2048 17.267 22.1265C19.2637 21.7293 20.8246 20.1684 21.2218 18.1717C21.3142 17.7071 21.3185 17.1276 21.3185 15.7092V9.45175C21.3185 8.11195 21.3069 7.65393 21.1729 7.26528C21.0441 6.89188 20.8339 6.55177 20.5575 6.26958C20.2698 5.97587 19.8653 5.76067 18.667 5.1615L12.8453 2.25063C12.1778 1.91687 11.9956 1.83475 11.8206 1.80192Z" fill="#959595"/>
</svg>
