<svg width="292" height="539" viewBox="0 0 292 539" fill="none" xmlns="http://www.w3.org/2000/svg">
<path d="M3.66667 6C3.66667 8.94552 6.05448 11.3333 9 11.3333C11.9455 11.3333 14.3333 8.94552 14.3333 6C14.3333 3.05448 11.9455 0.666666 9 0.666667C6.05448 0.666667 3.66667 3.05448 3.66667 6ZM252.667 5.99998C252.667 8.9455 255.054 11.3333 258 11.3333C260.946 11.3333 263.333 8.9455 263.333 5.99998C263.333 3.05446 260.946 0.666644 258 0.666645C255.054 0.666645 252.667 3.05446 252.667 5.99998ZM9 7L258 6.99998L258 4.99998L9 5L9 7Z" fill="#570680"/>
<path d="M3.66667 111C3.66667 113.946 6.05448 116.333 9 116.333C11.9455 116.333 14.3333 113.946 14.3333 111C14.3333 108.054 11.9455 105.667 9 105.667C6.05448 105.667 3.66667 108.054 3.66667 111ZM227.667 111C227.667 113.945 230.054 116.333 233 116.333C235.946 116.333 238.333 113.945 238.333 111C238.333 108.054 235.946 105.667 233 105.667C230.054 105.667 227.667 108.054 227.667 111ZM9 112L233 112L233 110L9 110L9 112Z" fill="#570680"/>
<path d="M3.66667 533C3.66667 535.946 6.05448 538.333 9 538.333C11.9455 538.333 14.3333 535.946 14.3333 533C14.3333 530.054 11.9455 527.667 9 527.667C6.05448 527.667 3.66667 530.054 3.66667 533ZM280.667 533C280.667 535.946 283.055 538.333 286 538.333C288.946 538.333 291.333 535.946 291.333 533C291.333 530.055 288.946 527.667 286 527.667C283.055 527.667 280.667 530.055 280.667 533ZM9 534L286 534L286 532L9 532L9 534Z" fill="#570680"/>
<path d="M3.204 219.629C3.55134 222.554 6.20407 224.644 9.12904 224.296C12.054 223.949 14.1436 221.296 13.7962 218.371C13.4489 215.446 10.7962 213.357 7.87121 213.704C4.94624 214.051 2.85666 216.704 3.204 219.629ZM200.704 199.129C201.051 202.054 203.704 204.144 206.629 203.796C209.554 203.449 211.644 200.796 211.296 197.871C210.949 194.946 208.296 192.857 205.371 193.204C202.446 193.551 200.357 196.204 200.704 199.129ZM8.50012 220L130.756 220L130.756 218L8.50012 218L8.50012 220ZM139.355 218.783L206.278 199.461L205.723 197.539L138.8 216.862L139.355 218.783ZM130.756 220C133.665 220 136.56 219.59 139.355 218.783L138.8 216.862C136.186 217.617 133.478 218 130.756 218L130.756 220Z" fill="#570680"/>
<path d="M3.20388 430.629C3.55122 433.554 6.20395 435.643 9.12891 435.296C12.0539 434.948 14.1435 432.296 13.7961 429.371C13.4488 426.446 10.7961 424.356 7.87109 424.704C4.94612 425.051 2.85654 427.704 3.20388 430.629ZM274.704 384.629C275.051 387.554 277.704 389.643 280.629 389.296C283.554 388.949 285.644 386.296 285.296 383.371C284.949 380.446 282.296 378.356 279.371 378.704C276.446 379.051 274.357 381.704 274.704 384.629ZM127.446 430L127.446 431L127.446 430ZM136.35 428.648L136.053 427.693L136.35 428.648ZM8.5 431L127.446 431L127.446 429L8.5 429L8.5 431ZM136.647 429.603L280.297 384.955L279.703 383.045L136.053 427.693L136.647 429.603ZM127.446 431C130.565 431 133.667 430.529 136.647 429.603L136.053 427.693C133.266 428.559 130.364 429 127.446 429L127.446 431Z" fill="#570680"/>
<path d="M3.20388 321.629C3.55122 324.554 6.20395 326.644 9.12892 326.296C12.0539 325.949 14.1435 323.296 13.7961 320.371C13.4488 317.446 10.7961 315.357 7.87109 315.704C4.94612 316.051 2.85654 318.704 3.20388 321.629ZM253.704 226.129C254.051 229.054 256.704 231.143 259.629 230.796C262.554 230.449 264.644 227.796 264.296 224.871C263.949 221.946 261.296 219.857 258.371 220.204C255.446 220.551 253.357 223.204 253.704 226.129ZM8.5 322L122.916 322L122.916 320L8.5 320L8.5 322ZM141.641 315.706L259.604 226.297L258.396 224.703L140.433 314.112L141.641 315.706ZM122.916 322C129.677 322 136.253 319.79 141.641 315.706L140.433 314.112C135.392 317.932 129.241 320 122.916 320L122.916 322Z" fill="#570680"/>
</svg>
