<svg width="292" height="539" viewBox="0 0 292 539" fill="none" xmlns="http://www.w3.org/2000/svg">
<path d="M288.333 6C288.333 8.94552 285.946 11.3333 283 11.3333C280.054 11.3333 277.667 8.94552 277.667 6C277.667 3.05448 280.054 0.666666 283 0.666667C285.946 0.666667 288.333 3.05448 288.333 6ZM39.3333 5.99998C39.3333 8.9455 36.9455 11.3333 34 11.3333C31.0545 11.3333 28.6667 8.9455 28.6667 5.99998C28.6667 3.05446 31.0545 0.666644 34 0.666645C36.9455 0.666645 39.3333 3.05446 39.3333 5.99998ZM283 7L34 6.99998L34 4.99998L283 5L283 7Z" fill="#570680"/>
<path d="M288.333 111C288.333 113.946 285.946 116.333 283 116.333C280.054 116.333 277.667 113.946 277.667 111C277.667 108.054 280.054 105.667 283 105.667C285.946 105.667 288.333 108.054 288.333 111ZM64.3333 111C64.3333 113.945 61.9455 116.333 59 116.333C56.0545 116.333 53.6667 113.945 53.6667 111C53.6667 108.054 56.0545 105.667 59 105.667C61.9455 105.667 64.3333 108.054 64.3333 111ZM283 112L59 112L59 110L283 110L283 112Z" fill="#570680"/>
<path d="M288.333 533C288.333 535.946 285.946 538.333 283 538.333C280.054 538.333 277.667 535.946 277.667 533C277.667 530.054 280.054 527.667 283 527.667C285.946 527.667 288.333 530.054 288.333 533ZM11.3333 533C11.3333 535.946 8.9455 538.333 6 538.333C3.05447 538.333 0.666657 535.946 0.666656 533C0.666656 530.055 3.05447 527.667 6 527.667C8.9455 527.667 11.3333 530.055 11.3333 533ZM283 534L6 534L6 532L283 532L283 534Z" fill="#570680"/>
<path d="M288.796 219.629C288.449 222.554 285.796 224.644 282.871 224.296C279.946 223.949 277.857 221.296 278.204 218.371C278.551 215.446 281.204 213.357 284.129 213.704C287.054 214.051 289.143 216.704 288.796 219.629ZM91.2961 199.129C90.9488 202.054 88.2961 204.144 85.3711 203.796C82.4461 203.449 80.3566 200.796 80.7039 197.871C81.0512 194.946 83.704 192.857 86.6289 193.204C89.5539 193.551 91.6435 196.204 91.2961 199.129ZM283.5 220L161.244 220L161.244 218L283.5 218L283.5 220ZM152.645 218.783L85.7226 199.461L86.2774 197.539L153.2 216.862L152.645 218.783ZM161.244 220C158.335 220 155.44 219.59 152.645 218.783L153.2 216.862C155.814 217.617 158.523 218 161.244 218L161.244 220Z" fill="#570680"/>
<path d="M288.796 430.629C288.449 433.554 285.796 435.643 282.871 435.296C279.946 434.948 277.857 432.296 278.204 429.371C278.551 426.446 281.204 424.356 284.129 424.704C287.054 425.051 289.144 427.704 288.796 430.629ZM17.2962 384.629C16.9488 387.554 14.2961 389.643 11.3711 389.296C8.44616 388.949 6.35658 386.296 6.70392 383.371C7.05126 380.446 9.70399 378.356 12.629 378.704C15.5539 379.051 17.6435 381.704 17.2962 384.629ZM164.554 430L164.554 431L164.554 430ZM155.65 428.648L155.947 427.693L155.65 428.648ZM283.5 431L164.554 431L164.554 429L283.5 429L283.5 431ZM155.353 429.603L11.7032 384.955L12.2969 383.045L155.947 427.693L155.353 429.603ZM164.554 431C161.435 431 158.333 430.529 155.353 429.603L155.947 427.693C158.734 428.559 161.636 429 164.554 429L164.554 431Z" fill="#570680"/>
<path d="M288.796 321.629C288.449 324.554 285.796 326.644 282.871 326.296C279.946 325.949 277.857 323.296 278.204 320.371C278.551 317.446 281.204 315.357 284.129 315.704C287.054 316.051 289.144 318.704 288.796 321.629ZM38.2961 226.129C37.9487 229.054 35.296 231.143 32.371 230.796C29.4461 230.449 27.3565 227.796 27.7038 224.871C28.0512 221.946 30.7039 219.857 33.6289 220.204C36.5538 220.551 38.6434 223.204 38.2961 226.129ZM283.5 322L169.084 322L169.084 320L283.5 320L283.5 322ZM150.359 315.706L32.3959 226.297L33.604 224.703L151.567 314.112L150.359 315.706ZM169.084 322C162.323 322 155.748 319.79 150.359 315.706L151.567 314.112C156.608 317.932 162.76 320 169.084 320L169.084 322Z" fill="#570680"/>
</svg>
