<svg width="20" height="20" viewBox="0 0 20 20" fill="none" xmlns="http://www.w3.org/2000/svg">
<path fill-rule="evenodd" clip-rule="evenodd" d="M9.28571 0C4.15736 0 0 4.15736 0 9.28571C0 14.4141 4.15736 18.5714 9.28571 18.5714C11.5928 18.5714 13.7033 17.7301 15.3273 16.3374L18.7806 19.7908C19.0596 20.0697 19.5118 20.0697 19.7908 19.7908C20.0697 19.5118 20.0697 19.0596 19.7908 18.7806L16.3374 15.3273C17.7301 13.7033 18.5714 11.5928 18.5714 9.28571C18.5714 4.15736 14.4141 0 9.28571 0ZM1.42857 9.28571C1.42857 4.94633 4.94633 1.42857 9.28571 1.42857C13.6251 1.42857 17.1429 4.94633 17.1429 9.28571C17.1429 13.6251 13.6251 17.1429 9.28571 17.1429C4.94633 17.1429 1.42857 13.6251 1.42857 9.28571Z" fill="#959595"/>
</svg>
